<?xml version="1.0" standalone="no"?>
<!DOCTYPE svg PUBLIC "-//W3C//DTD SVG 20010904//EN"
 "http://www.w3.org/TR/2001/REC-SVG-20010904/DTD/svg10.dtd">
<svg version="1.0" xmlns="http://www.w3.org/2000/svg"
 width="1024.000000pt" height="656.000000pt" viewBox="0 0 1024.000000 656.000000"
 preserveAspectRatio="xMidYMid meet">

<g transform="translate(0.000000,656.000000) scale(0.100000,-0.100000)"
fill="#000000" stroke="none">
<path d="M2883 6354 c0 -10 28 -47 61 -83 65 -70 195 -222 234 -275 13 -17 -4
-2 -38 34 -34 36 -67 65 -74 65 -6 0 -11 6 -11 13 0 13 -92 132 -103 132 -3 0
3 -9 13 -20 10 -11 15 -20 11 -20 -10 0 75 -109 119 -153 22 -22 30 -34 19
-30 -24 8 -74 49 -69 55 3 3 -8 17 -24 32 -51 49 -42 11 10 -45 28 -30 60 -65
72 -79 12 -14 26 -25 31 -25 5 0 11 -11 13 -24 3 -20 -8 -13 -64 40 -38 34
-88 84 -111 111 -24 26 -48 45 -53 42 -6 -3 -6 -11 1 -19 7 -8 9 -19 5 -25 -4
-6 -2 -9 4 -8 5 2 27 -22 48 -54 21 -31 53 -76 72 -100 19 -23 28 -37 21 -30
-8 6 -19 12 -25 12 -23 0 -11 -32 29 -78 37 -41 38 -44 11 -26 -16 12 -34 20
-40 18 -11 -4 -83 36 -144 80 -22 15 -45 26 -52 24 -12 -4 42 -60 115 -117 21
-17 35 -31 30 -31 -6 0 -10 -9 -11 -19 -1 -12 3 -18 11 -15 14 5 29 -10 40
-40 5 -15 4 -17 -7 -8 -8 7 -17 9 -20 5 -4 -3 -7 4 -7 16 0 12 -4 20 -9 17 -4
-3 -16 3 -26 14 -15 16 -15 22 -5 35 7 8 8 15 2 15 -5 0 -13 -7 -16 -16 -6
-16 -8 -16 -24 0 -10 9 -23 16 -28 16 -5 0 29 -37 76 -82 47 -44 78 -77 70
-73 -35 20 -76 52 -98 78 -14 15 -27 25 -30 23 -3 -3 -12 0 -21 7 -9 6 -1 -6
18 -28 19 -22 54 -55 78 -74 24 -18 43 -36 43 -38 0 -11 -69 37 -120 84 -32
29 -60 50 -63 46 -11 -10 14 -34 27 -26 6 4 6 0 -2 -9 -11 -14 -7 -21 29 -52
23 -19 46 -33 52 -29 6 3 7 1 4 -4 -7 -11 124 -103 147 -103 7 0 20 -8 27 -17
13 -16 12 -17 -4 -4 -9 8 -20 12 -23 9 -2 -3 15 -15 38 -26 24 -12 37 -21 30
-22 -7 0 -11 -4 -7 -9 6 -10 -140 51 -225 94 -29 15 -50 23 -47 18 3 -5 33
-22 66 -38 38 -18 57 -32 49 -36 -7 -4 -17 -5 -23 -1 -5 4 -12 7 -15 8 -30 5
-69 20 -85 30 -42 29 -35 12 11 -26 26 -21 52 -36 57 -33 6 3 7 1 3 -5 -7 -11
31 -36 139 -91 33 -17 51 -30 40 -29 -11 2 -22 6 -25 10 -3 4 -17 9 -31 11
-14 3 -46 19 -72 37 -26 17 -53 33 -60 34 -7 1 -19 6 -27 10 -8 5 -1 -6 15
-24 38 -41 114 -91 185 -120 65 -27 87 -43 41 -30 -18 5 -39 6 -48 3 -11 -4
-14 -3 -9 6 4 6 4 10 -1 9 -4 -1 -18 3 -30 10 -18 10 -21 9 -19 -5 2 -9 13
-24 26 -32 19 -12 22 -13 16 -2 -6 10 -5 12 3 7 6 -4 9 -12 6 -17 -4 -5 2 -9
12 -10 10 0 13 -3 6 -5 -7 -3 -22 0 -34 6 -16 9 -20 9 -14 1 4 -7 25 -19 46
-28 58 -23 42 -26 -22 -4 -30 10 -53 24 -51 31 1 6 -2 9 -7 6 -5 -4 -14 2 -20
11 -14 26 -25 9 -10 -19 l12 -23 -29 25 c-23 20 -22 17 5 -12 35 -38 161 -109
216 -123 17 -3 67 -13 111 -20 45 -7 94 -20 110 -28 28 -15 26 -15 -36 -10
-36 3 -108 16 -160 29 -104 26 -135 30 -110 14 8 -6 32 -15 54 -21 21 -6 36
-12 34 -15 -3 -2 -42 8 -89 22 -46 14 -95 28 -109 30 -25 5 -25 5 -5 -11 49
-40 116 -72 195 -91 82 -21 84 -22 49 -29 -25 -5 -64 0 -123 15 -47 12 -91 18
-97 14 -8 -4 -9 -3 -5 4 5 8 -1 12 -16 12 l-22 0 20 -20 c11 -12 47 -32 80
-46 44 -19 50 -23 24 -18 -19 3 -55 17 -79 30 -24 13 -38 18 -32 11 6 -8 9
-16 6 -19 -3 -3 3 -11 12 -19 16 -13 17 -12 4 4 -18 23 -6 22 30 -4 16 -11 27
-24 24 -29 -9 -15 71 -74 134 -99 34 -13 60 -26 58 -28 -3 -3 -61 10 -152 34
-12 3 -6 -5 15 -20 45 -31 189 -95 245 -107 47 -10 115 -46 115 -61 0 -4 -6
-7 -12 -5 -57 17 -179 38 -185 33 -10 -10 45 -64 93 -92 24 -14 107 -43 186
-64 l143 -39 -70 -2 c-51 -2 -63 -4 -45 -10 24 -8 24 -8 -5 -9 -16 0 -57 6
-90 13 -33 8 -61 13 -63 11 -7 -7 83 -67 133 -91 28 -13 75 -28 105 -33 48 -8
51 -9 20 -11 -32 -2 -30 -3 15 -10 28 -5 76 -9 107 -9 31 -1 60 -6 64 -12 5
-9 -21 -10 -97 -6 -60 3 -91 2 -74 -3 30 -8 29 -8 -10 -10 -70 -4 -75 -5 -76
-15 -3 -16 59 -48 156 -80 71 -24 89 -34 87 -48 -3 -15 7 -17 75 -18 l78 -1
-85 -15 c-46 -8 -93 -21 -103 -28 -18 -13 -18 -14 10 -28 42 -22 129 -45 199
-52 l62 -7 -36 -32 -36 -33 38 -13 c26 -8 67 -10 138 -5 64 5 99 4 97 -2 -6
-17 -97 -91 -157 -129 -49 -32 -67 -40 -94 -43 -18 -2 -68 -55 -64 -68 3 -8 2
-12 -2 -9 -4 2 -43 -13 -87 -35 -47 -23 -69 -38 -53 -35 15 2 25 0 23 -4 -2
-4 17 -8 42 -9 53 -2 73 -11 24 -11 -40 0 -172 -29 -187 -41 -8 -6 -14 -4 -17
5 -4 11 3 16 26 19 24 3 20 4 -15 5 -67 3 -60 22 7 22 30 0 55 2 55 5 0 2 -28
39 -63 82 -34 43 -72 92 -84 108 l-21 30 134 -3 134 -4 0 26 0 26 -155 0 c-85
0 -155 3 -155 8 0 4 42 6 93 4 51 -2 115 -2 142 0 l49 3 -44 51 c-25 28 -85
99 -133 157 l-88 107 -600 0 -599 0 0 -160 0 -160 163 -2 162 -2 -157 -3 c-87
-2 -158 -7 -158 -11 1 -25 23 -30 162 -33 l148 -4 0 -811 0 -810 98 -130 c53
-72 113 -151 132 -177 19 -25 40 -46 47 -47 6 0 15 20 18 44 4 24 5 467 3 985
l-3 941 143 0 c78 0 141 -3 141 -7 -1 -5 -1 -404 0 -887 1 -706 3 -877 14
-864 20 26 160 148 169 148 5 0 -25 -33 -65 -74 -41 -40 -84 -94 -96 -119 -27
-55 -44 -166 -35 -221 l6 -38 103 102 c57 57 115 124 128 149 33 61 51 146 45
215 -6 69 3 62 31 -24 27 -85 49 -119 102 -162 47 -39 181 -119 187 -113 2 2
-4 28 -13 57 -76 230 -286 468 -414 468 -19 0 -30 4 -26 10 13 21 81 10 128
-20 l47 -30 0 460 c0 253 4 460 9 460 4 0 20 -17 33 -37 14 -21 88 -122 164
-224 76 -103 182 -244 234 -315 52 -71 149 -196 215 -278 114 -142 291 -372
470 -611 45 -60 99 -141 121 -178 l39 -69 7 79 c5 43 6 377 5 743 -2 366 -2
725 0 797 l4 133 26 -17 c24 -16 26 -16 38 1 12 16 14 16 20 -5 5 -16 9 -18
15 -8 7 10 14 11 37 0 27 -12 27 -13 8 -27 -11 -8 -25 -12 -33 -9 -7 2 -10 1
-7 -4 3 -5 -4 -12 -15 -16 -24 -8 -25 -18 -5 -35 12 -10 22 -9 49 4 42 20 65
20 72 1 10 -25 34 -17 34 10 0 23 2 24 20 15 11 -6 31 -8 46 -4 23 6 25 10 19
40 -6 32 -4 34 22 34 16 0 39 -7 52 -16 21 -15 24 -15 42 5 11 12 33 22 49 22
50 2 55 4 52 19 -6 25 -25 31 -79 25 -46 -6 -54 -4 -70 16 -10 12 -30 36 -45
54 -16 18 -28 41 -28 51 0 17 1 17 14 -1 8 -11 12 -24 8 -30 -3 -5 1 -4 10 2
8 7 18 10 21 6 4 -3 7 2 8 13 0 10 3 13 6 7 10 -25 18 -12 17 28 l-1 41 18
-23 c10 -13 20 -22 22 -19 9 11 27 75 27 99 l1 26 17 -27 c22 -37 29 -35 43
11 8 26 16 38 25 34 11 -4 14 6 14 42 0 46 1 47 18 32 27 -25 32 -21 32 22 0
22 5 43 12 47 7 4 8 3 4 -4 -4 -7 -2 -10 7 -6 9 3 13 15 10 32 -2 20 1 16 12
-13 20 -52 35 -66 35 -34 0 13 3 35 7 48 6 23 7 23 13 5 6 -16 12 -9 32 35 15
32 28 48 31 40 3 -8 6 -3 7 11 1 14 4 19 7 12 3 -8 16 10 31 42 26 57 42 71
42 36 0 -35 14 -22 58 55 23 42 47 73 52 70 6 -4 10 3 10 14 0 12 5 21 10 21
6 0 10 7 10 16 0 8 5 12 10 9 6 -3 10 4 11 17 0 22 1 22 8 3 8 -19 8 -19 16 4
5 17 9 20 15 11 6 -9 12 0 21 28 7 23 18 42 26 42 7 0 17 10 22 23 7 19 25 25
161 52 85 17 155 35 157 42 5 14 -43 28 -147 43 -130 18 -141 21 -135 30 8 13
-86 112 -101 106 -6 -2 -17 1 -23 7 -8 8 -11 7 -11 -3 0 -10 -4 -10 -17 2 -16
15 -87 48 -101 48 -3 0 3 -7 14 -15 25 -19 15 -19 -29 0 -54 22 -68 20 -57 -9
8 -22 7 -24 -13 -20 -12 3 -51 7 -87 9 l-65 4 43 -19 c52 -24 54 -31 5 -19
-50 11 -136 11 -129 0 4 -5 -3 -7 -14 -4 -27 7 -25 -6 3 -16 20 -8 18 -10 -18
-16 l-40 -8 40 -12 c37 -10 35 -11 -40 -9 -73 2 -78 1 -55 -11 23 -13 20 -14
-44 -15 -68 0 -69 0 -51 -20 17 -19 17 -20 0 -20 -46 0 -76 30 -455 450 -107
118 -338 361 -515 540 -177 179 -349 359 -382 400 -34 41 -78 91 -98 110 l-37
35 23 -40 c12 -22 29 -48 37 -57 8 -10 12 -18 9 -18 -4 0 -25 23 -47 51 -22
28 -40 48 -40 44 0 -15 46 -94 94 -159 29 -39 61 -84 71 -101 33 -54 -93 75
-136 139 l-39 58 0 -41 c0 -44 36 -135 76 -190 l26 -36 -38 40 c-67 69 -82 47
-26 -40 15 -24 -11 -1 -68 60 -193 206 -394 390 -413 378 -6 -3 -7 -1 -3 5 6
11 -31 38 -46 34 -5 -1 -8 2 -8 7 0 5 -10 16 -23 24 -36 23 -31 -6 6 -40 17
-16 27 -23 23 -16 -3 6 -2 14 3 18 6 3 8 -3 6 -14 -3 -14 18 -40 73 -90 42
-39 72 -71 68 -71 -4 0 -38 27 -74 61 -77 70 -155 133 -130 104 9 -11 17 -24
16 -28 0 -5 4 -12 8 -15 4 -4 4 -1 -1 7 -5 9 -3 12 5 9 7 -2 14 -12 16 -22 1
-10 8 -24 14 -30 8 -8 9 -6 4 9 -7 20 -7 20 14 1 23 -20 31 -42 10 -30 -7 4
-8 3 -4 -5 4 -6 11 -9 15 -6 5 2 24 -12 44 -33 20 -20 53 -51 74 -69 21 -18
63 -56 94 -85 30 -29 42 -41 25 -27 -17 14 -60 48 -96 75 -35 27 -82 67 -104
89 -44 44 -40 35 18 -37 21 -26 43 -45 49 -41 5 3 7 1 4 -4 -4 -6 9 -25 28
-42 20 -17 32 -31 28 -31 -4 0 16 -24 45 -53 29 -29 49 -57 45 -61 -5 -4 -1
-6 7 -4 9 2 14 -3 12 -11 -2 -8 3 -18 10 -22 7 -4 10 -11 6 -14 -10 -10 -116
94 -240 235 -153 174 -208 231 -218 225 -5 -3 -12 0 -16 6 -5 8 -2 10 7 5 8
-5 -37 42 -98 104 -69 68 -117 109 -124 104 -7 -4 -9 -3 -6 3 3 5 -11 26 -32
47 -28 27 -38 32 -38 20z m32 -24 c10 -11 16 -20 13 -20 -3 0 -13 9 -23 20
-10 11 -16 20 -13 20 3 0 13 -9 23 -20z m130 -120 c27 -27 47 -50 44 -50 -3 0
-27 23 -54 50 -27 28 -47 50 -44 50 3 0 27 -22 54 -50z m91 -92 l29 -33 -32
29 c-31 28 -38 36 -30 36 2 0 16 -15 33 -32z m159 -8 c10 -11 16 -20 13 -20
-3 0 -13 9 -23 20 -10 11 -16 20 -13 20 3 0 13 -9 23 -20z m-345 -15 c13 -14
21 -25 18 -25 -2 0 -15 11 -28 25 -13 14 -21 25 -18 25 2 0 15 -11 28 -25z
m70 0 c13 -14 21 -25 18 -25 -2 0 -15 11 -28 25 -13 14 -21 25 -18 25 2 0 15
-11 28 -25z m921 -262 c13 -16 12 -17 -3 -4 -10 7 -18 15 -18 17 0 8 8 3 21
-13z m-749 -23 c27 -17 53 -28 58 -25 5 3 12 0 16 -6 4 -8 3 -9 -4 -5 -7 4
-12 5 -12 3 0 -8 95 -72 103 -69 5 1 6 -2 3 -7 -4 -5 19 -24 49 -41 30 -17 53
-36 50 -41 -4 -5 -4 -9 -1 -9 2 0 12 -3 22 -7 13 -5 15 -3 9 7 -5 9 -4 11 4 6
6 -4 9 -11 6 -16 -3 -5 3 -11 13 -14 10 -4 30 -19 43 -34 l24 -27 -25 21 c-14
11 -42 29 -64 40 -21 10 -40 25 -43 31 -3 7 -9 10 -14 7 -5 -3 -9 -1 -9 4 0 5
-6 9 -12 9 -7 0 -51 22 -97 48 -47 27 -91 48 -97 48 -7 0 -11 3 -9 7 6 9 -53
52 -63 46 -4 -2 -9 9 -10 25 -1 16 1 29 4 29 4 0 29 -14 56 -30z m-257 -100
c10 -11 16 -20 13 -20 -3 0 -13 9 -23 20 -10 11 -16 20 -13 20 3 0 13 -9 23
-20z m270 -35 c17 -12 57 -36 90 -53 33 -17 56 -31 50 -32 -5 0 4 -9 20 -21
17 -11 25 -19 20 -17 -24 7 -172 93 -195 112 -14 12 -4 -1 22 -27 28 -29 53
-45 59 -41 8 4 9 3 5 -4 -8 -13 60 -66 112 -88 37 -16 43 -29 10 -21 -23 6
-23 6 -3 -9 11 -9 31 -24 45 -35 l25 -19 -32 11 c-89 30 -250 154 -283 219
-28 54 -27 74 3 59 12 -6 36 -22 52 -34z m420 -151 c14 -2 64 -34 53 -34 -3 0
-23 8 -44 17 -22 9 -43 16 -49 14 -5 -1 -7 1 -3 5 4 4 2 14 -4 23 -7 9 -3 8
10 -3 13 -11 29 -21 37 -22z m482 -23 c43 -32 87 -69 98 -82 17 -21 16 -21
-10 2 -17 14 -56 45 -89 69 -52 38 -57 40 -51 19 10 -31 50 -83 84 -110 30
-24 9 -15 -32 14 -35 24 -107 114 -107 133 0 26 29 14 107 -45z m-436 -42 c80
-65 136 -113 124 -108 -83 34 -205 123 -205 148 0 20 16 12 81 -40z m-471 11
c19 -11 31 -19 25 -19 -5 0 -26 8 -45 19 -19 11 -30 19 -25 19 6 0 26 -8 45
-19z m515 10 c3 -6 -1 -7 -9 -4 -18 7 -21 14 -7 14 6 0 13 -4 16 -10z m-317
-110 c66 -30 119 -56 118 -58 -2 -2 -30 6 -62 17 -32 11 -63 17 -68 14 -5 -4
-6 -1 -1 7 5 8 4 11 -2 7 -5 -3 -26 5 -46 18 -56 38 -55 29 1 -15 28 -23 90
-61 139 -87 48 -25 80 -43 71 -40 -10 4 -18 4 -18 2 0 -7 60 -38 100 -52 l35
-12 -35 6 c-101 16 -254 89 -311 148 -53 55 -67 77 -49 83 10 4 9 6 -1 14 -22
15 1 6 129 -52z m683 -91 c36 -15 78 -33 93 -39 16 -6 26 -13 23 -16 -3 -3
-19 2 -36 10 -48 25 -46 19 6 -22 26 -22 71 -60 98 -86 42 -39 45 -45 20 -32
-51 24 -154 106 -171 135 -17 28 -62 61 -84 61 -7 0 -9 -8 -4 -22 l7 -23 -23
20 c-12 11 -26 28 -32 38 -8 17 -7 18 14 12 12 -4 53 -20 89 -36z m-996 -9 c3
-6 -1 -7 -9 -4 -18 7 -21 14 -7 14 6 0 13 -4 16 -10z m879 -164 c33 -24 64
-43 68 -40 4 3 5 -2 2 -11 -11 -28 -184 77 -184 112 0 18 35 0 114 -61z m-4
29 c19 -14 31 -25 27 -25 -3 0 -23 11 -43 25 -20 14 -33 25 -27 25 5 0 24 -11
43 -25z m575 -35 c33 -34 44 -50 33 -50 -20 0 -98 71 -98 88 0 22 15 13 65
-38z m-832 4 c32 -20 56 -38 54 -41 -17 -16 -137 43 -137 68 0 17 26 9 83 -27z
m986 -148 c30 -32 20 -34 -22 -4 -35 23 -57 47 -57 61 0 11 48 -23 79 -57z
m-369 12 c11 -6 7 -7 -14 -3 l-28 6 33 -31 34 -31 -45 16 c-42 15 -100 59
-100 76 0 9 97 -18 120 -33z m-904 -19 c46 -12 83 -23 81 -25 -3 -3 -95 15
-157 31 -36 10 113 -63 187 -91 69 -26 144 -64 127 -64 -22 0 -209 61 -261 85
-28 13 -58 33 -65 44 -7 12 -24 22 -38 22 -23 1 -23 2 5 9 17 4 31 8 33 9 1 0
41 -9 88 -20z m-242 -49 c19 -7 19 -7 -1 -12 -11 -3 -35 3 -54 14 l-34 19 35
-7 c19 -4 44 -10 54 -14z m-11 -34 c32 -16 56 -31 53 -33 -7 -7 -113 45 -122
58 -8 13 -10 14 69 -25z m1447 -11 c32 -18 5 -19 -35 0 -23 10 -25 13 -10 14
11 0 31 -6 45 -14z m-355 -15 c13 -5 14 -9 5 -9 -8 0 -24 4 -35 9 -13 5 -14 9
-5 9 8 0 24 -4 35 -9z m-275 -15 l45 -15 -45 6 -45 6 20 -22 c11 -12 36 -30
55 -41 23 -12 29 -18 17 -19 -36 0 -117 59 -117 87 0 17 14 16 70 -2z m285
-25 c31 -16 49 -30 39 -30 -14 -1 -10 -5 11 -16 l30 -14 -30 6 c-33 6 -106 53
-113 72 -5 17 -1 16 63 -18z m410 -38 c-6 -6 -60 26 -75 43 -8 10 6 5 32 -11
26 -16 45 -30 43 -32z m231 -60 c-5 -4 -86 36 -86 43 0 3 20 -5 45 -17 24 -12
43 -23 41 -26z m-1238 -41 c20 -10 57 -25 82 -32 l45 -14 -35 -6 c-49 -7 -160
35 -160 62 0 15 28 10 68 -10z m430 -18 c-10 -2 -26 -2 -35 0 -10 3 -2 5 17 5
19 0 27 -2 18 -5z m65 0 c-7 -2 -21 -2 -30 0 -10 3 -4 5 12 5 17 0 24 -2 18
-5z m-53 -21 c0 -5 26 -15 58 -23 53 -13 55 -14 23 -17 -36 -4 -121 23 -121
39 0 5 9 9 20 9 11 0 20 -4 20 -8z m-721 -38 c14 -12 -19 -1 -35 12 -18 14
-18 14 6 3 14 -6 27 -13 29 -15z m378 10 c-3 -3 -12 -4 -19 -1 -8 3 -5 6 6 6
11 1 17 -2 13 -5z m816 -24 c15 -5 27 -15 27 -21 0 -14 -45 -4 -78 17 -26 17
-21 39 6 24 9 -6 29 -14 45 -20z m152 -10 c-17 -7 -17 -9 -2 -9 9 -1 17 -6 17
-11 0 -6 10 -15 23 -20 12 -5 16 -9 9 -9 -18 -1 -72 27 -72 38 0 12 12 21 29
20 12 0 11 -3 -4 -9z m-366 -31 c23 -6 21 -7 -14 -8 -45 -1 -71 11 -61 28 5 8
13 8 29 0 11 -7 32 -15 46 -20z m1506 1 c-3 -5 -15 -10 -26 -10 -11 0 -29 -5
-41 -11 -11 -6 -22 -8 -25 -5 -7 7 56 35 80 36 10 0 15 -4 12 -10z m-1857 -30
c36 0 45 -20 10 -21 -22 0 -22 -1 -3 -9 19 -8 19 -9 -3 -9 -28 -1 -82 26 -82
40 0 7 9 9 23 5 12 -3 37 -6 55 -6z m1879 -32 c13 -12 23 -26 23 -32 0 -6 -7
0 -16 12 -9 13 -26 27 -38 32 -11 5 -15 9 -7 9 8 1 25 -9 38 -21z m-876 -34
l34 -26 -35 7 c-46 9 -66 25 -48 36 7 5 13 9 14 9 0 0 16 -12 35 -26z m568
-30 c9 -10 -53 6 -63 17 -6 5 4 5 24 -1 18 -5 35 -12 39 -16z m269 -25 c10 0
12 -2 4 -6 -15 -6 -62 23 -62 37 0 6 9 1 20 -10 11 -11 28 -20 38 -21z m-1218
21 c14 -4 18 -9 10 -10 -8 -1 -4 -6 10 -10 l25 -8 -25 -1 c-37 -1 -101 19 -95
30 7 11 40 10 75 -1z m1270 6 c0 -2 -8 -10 -17 -17 -16 -13 -17 -12 -4 4 13
16 21 21 21 13z m250 -6 c-8 -5 -20 -10 -26 -10 -6 0 -29 -8 -50 -17 -22 -9
-45 -18 -52 -19 -7 -1 -25 -10 -40 -20 -65 -42 -77 -46 -42 -15 54 49 139 85
210 90 13 1 13 0 0 -9z m-821 -16 c9 -8 -45 -2 -64 6 -14 7 -8 8 20 3 22 -3
42 -7 44 -9z m-1010 -10 c2 -2 -7 -4 -20 -4 -19 0 -21 -2 -9 -10 12 -8 11 -10
-7 -10 -33 0 -76 22 -61 31 11 7 88 2 97 -7z m557 1 c14 -13 12 -15 -14 -15
-38 0 -64 9 -56 21 8 14 54 10 70 -6z m661 -1 c-3 -3 -12 -4 -19 -1 -8 3 -5 6
6 6 11 1 17 -2 13 -5z m40 0 c-3 -3 -12 -4 -19 -1 -8 3 -5 6 6 6 11 1 17 -2
13 -5z m51 -30 c-4 -3 -32 -5 -63 -5 -31 0 -59 2 -63 5 -3 3 25 6 63 6 38 0
66 -3 63 -6z m-368 -56 c-28 -10 -62 -2 -42 11 8 4 25 6 40 3 l26 -5 -24 -9z
m418 13 c10 -6 4 -12 -19 -21 -24 -10 -34 -11 -36 -3 -3 7 -12 10 -21 7 -9 -3
-6 2 8 10 28 17 49 20 68 7z m-1227 -8 c-10 -4 -8 -9 10 -19 22 -12 20 -13
-31 -13 -63 -1 -100 14 -59 23 56 12 102 17 80 9z m534 -3 l-30 -8 33 -1 c47
-1 30 -21 -19 -21 -21 0 -39 3 -39 6 0 14 36 33 60 32 23 0 23 -1 -5 -8z m725
-5 c0 -2 -13 -11 -30 -20 -38 -19 -40 -11 -2 9 31 17 32 18 32 11z m69 -9 c-9
-10 -80 -56 -85 -56 -14 0 11 22 44 40 37 19 49 24 41 16z m-1579 -25 c-8 -5
-33 -11 -55 -14 l-40 -6 40 14 c47 16 79 20 55 6z m-480 -11 c20 -6 21 -8 5
-8 -11 0 -29 3 -40 8 -25 11 1 11 35 0z m1006 1 c-11 -17 -66 -33 -92 -27 -45
12 -6 32 64 35 18 0 31 -3 28 -8z m-583 -28 c32 -19 -58 -30 -113 -13 -25 7
-25 8 20 24 15 5 79 -2 93 -11z m1617 11 c0 -8 -19 -13 -24 -6 -3 5 1 9 9 9 8
0 15 -2 15 -3z m-515 -14 c-11 -5 -40 -8 -65 -8 -37 0 -41 1 -20 8 36 11 112
11 85 0z m555 -4 c0 -2 -8 -10 -17 -17 -16 -13 -17 -12 -4 4 13 16 21 21 21
13z m-406 -18 c-3 -4 -20 -8 -37 -8 -24 0 -28 3 -17 10 18 11 61 9 54 -2z
m-304 -2 c0 -2 -7 -6 -15 -10 -8 -3 -15 -1 -15 4 0 6 7 10 15 10 8 0 15 -2 15
-4z m-733 -68 c-7 -4 -32 -8 -56 -8 -55 0 -44 19 16 29 38 7 63 -6 40 -21z
m1178 -29 c-22 -22 -48 -45 -58 -51 -33 -18 12 40 52 68 50 34 51 30 6 -17z
m-392 -14 c-29 -21 -73 -36 -73 -26 0 5 17 15 38 24 48 20 62 21 35 2z m-1118
-5 c-22 -5 -71 -9 -110 -8 -94 1 -30 14 75 15 64 1 69 0 35 -7z m545 -5 c0 -9
-21 -20 -56 -31 -88 -25 -83 3 6 33 47 15 50 15 50 -2z m1133 -40 c-3 -9 -8
-14 -10 -11 -3 3 -2 9 2 15 9 16 15 13 8 -4z m-373 1 c0 -8 -110 -90 -124 -92
-28 -4 -17 10 42 53 49 37 82 52 82 39z m-1120 -20 c0 -5 -69 -46 -78 -46 -6
1 69 50 76 50 1 0 2 -2 2 -4z m7 -47 c-26 -15 -128 -49 -146 -49 -25 1 32 28
91 44 64 18 79 19 55 5z m664 -33 c-42 -35 -78 -52 -88 -43 -11 11 11 30 61
53 70 31 75 30 27 -10z m-191 0 c0 -7 -62 -43 -93 -55 -20 -8 -26 -7 -24 2 3
19 31 36 74 46 21 5 39 9 41 10 1 1 2 -1 2 -3z m312 -36 c-17 -29 -40 -46 -50
-36 -4 5 55 66 64 66 2 0 -5 -13 -14 -30z m389 -31 c-12 -19 -21 -30 -21 -26
0 12 33 67 38 63 1 -2 -6 -19 -17 -37z m-2148 -26 c-40 -2 -106 -2 -145 0 -40
1 -8 3 72 3 80 0 112 -2 73 -3z m1527 -31 c0 -5 -15 -19 -32 -32 -27 -19 -30
-20 -18 -4 14 17 41 43 48 44 1 0 2 -4 2 -8z m-254 -37 c-32 -26 -66 -38 -66
-24 0 12 61 49 80 49 10 -1 4 -9 -14 -25z m454 -25 c-43 -38 -38 -58 6 -25 10
8 24 14 29 15 23 0 -84 -60 -115 -65 l-35 -6 29 23 c16 13 50 40 75 60 61 49
68 47 11 -2z m300 21 c-13 -25 -59 -61 -76 -61 -8 0 -14 9 -14 20 0 11 5 17
13 15 6 -3 28 6 47 19 43 31 43 31 30 7z m-1190 -76 c-7 -9 -15 -13 -17 -11
-7 7 7 26 19 26 6 0 6 -6 -2 -15z m638 3 c-2 -7 3 -12 10 -10 8 1 11 -2 7 -8
-7 -11 -70 -40 -87 -40 -16 0 7 30 38 51 34 22 35 23 32 7z m-597 -21 c-14
-17 -98 -63 -131 -71 -14 -4 2 7 35 23 33 16 69 36 80 45 25 19 31 20 16 3z
m324 -52 l-30 -26 45 21 c33 15 40 17 25 4 -24 -19 -98 -55 -103 -49 -11 10
11 36 45 54 50 27 54 26 18 -4z m731 -33 c-8 -16 -23 -35 -33 -43 -16 -12 -17
-12 -6 2 7 9 9 20 5 24 -4 5 -1 5 6 1 7 -4 12 -2 12 6 0 12 19 38 27 38 2 0
-3 -13 -11 -28z m-1076 4 c0 -2 -16 -13 -35 -25 -19 -11 -35 -18 -35 -16 0 5
61 45 68 45 1 0 2 -2 2 -4z m1003 -53 c-4 -11 -3 -14 5 -9 7 4 12 2 12 -3 0
-6 -4 -11 -8 -11 -5 0 -15 -11 -22 -25 -7 -14 -15 -23 -17 -21 -3 2 3 16 12
30 18 27 9 35 -15 14 -8 -7 -4 -1 9 15 28 31 33 33 24 10z m-1143 -23 c-45
-38 -196 -143 -235 -162 -16 -8 -43 -18 -60 -22 -20 -4 -9 5 32 26 70 37 231
147 252 172 7 9 21 16 29 16 11 0 4 -10 -18 -30z m691 -26 c-11 -15 -21 -24
-21 -20 0 12 33 57 37 52 3 -3 -4 -17 -16 -32z m-595 3 c-17 -12 -48 -32 -70
-45 -23 -13 -30 -15 -16 -5 13 10 32 25 41 34 21 20 51 38 64 38 6 0 -3 -10
-19 -22z m189 -23 c-26 -20 -123 -69 -155 -79 -14 -4 18 16 70 43 105 55 114
59 85 36z m145 -33 c0 -13 2 -13 9 -2 5 7 14 10 20 6 9 -5 9 -10 0 -21 -9 -11
-8 -14 6 -14 9 0 19 -9 22 -19 4 -17 32 -28 86 -34 9 -1 17 -5 17 -10 0 -11
43 -5 52 8 4 6 8 -165 8 -380 -1 -308 -3 -387 -13 -375 -7 9 -41 54 -77 100
-35 47 -131 172 -213 278 -171 222 -257 340 -257 353 0 5 6 9 13 10 6 0 77 31
157 68 145 69 170 73 170 32z m518 -15 c-24 -24 -56 -52 -73 -62 l-30 -19 16
25 c9 14 23 25 30 25 8 1 13 7 11 14 -1 7 2 10 7 7 5 -4 23 7 39 24 17 16 33
30 37 30 3 0 -14 -20 -37 -44z m65 10 c-10 -13 -20 -22 -22 -20 -4 4 29 44 36
44 2 0 -4 -11 -14 -24z m37 4 c-6 -11 -13 -20 -16 -20 -2 0 0 9 6 20 6 11 13
20 16 20 2 0 0 -9 -6 -20z m208 -17 c11 -34 7 -39 -16 -24 -9 5 -11 17 -6 35
7 31 8 31 22 -11z m-51 -5 c-3 -8 -6 -5 -6 6 -1 11 2 17 5 13 3 -3 4 -12 1
-19z m-1227 8 c0 -6 -137 -90 -188 -115 -24 -12 -53 -21 -65 -19 -16 2 -4 10
38 26 33 12 94 43 135 67 80 47 80 47 80 41z m740 1 c0 -2 -12 -14 -27 -28
l-28 -24 24 28 c23 25 31 32 31 24z m40 -37 c-6 -11 -13 -20 -16 -20 -2 0 0 9
6 20 6 11 13 20 16 20 2 0 0 -9 -6 -20z m590 -16 c0 -9 -28 -3 -46 11 -17 13
-16 14 14 4 17 -6 32 -13 32 -15z"/>
<path d="M2880 6306 c0 -2 8 -10 18 -17 15 -13 16 -12 3 4 -13 16 -21 21 -21
13z"/>
<path d="M3015 5930 c10 -11 20 -20 23 -20 3 0 -3 9 -13 20 -10 11 -20 20 -23
20 -3 0 3 -9 13 -20z"/>
<path d="M2915 5910 c10 -11 20 -20 23 -20 3 0 -3 9 -13 20 -10 11 -20 20 -23
20 -3 0 3 -9 13 -20z"/>
<path d="M2957 5879 c12 -15 73 -53 73 -46 0 2 -19 17 -42 32 -24 16 -38 22
-31 14z"/>
<path d="M2889 5827 c22 -27 48 -39 57 -25 4 6 3 8 -3 5 -6 -4 -24 3 -39 15
-20 16 -25 17 -15 5z"/>
<path d="M2800 5786 c0 -2 8 -10 18 -17 15 -13 16 -12 3 4 -13 16 -21 21 -21
13z"/>
<path d="M2965 5771 c-3 -5 -2 -12 3 -15 5 -3 9 1 9 9 0 17 -3 19 -12 6z"/>
<path d="M3750 5741 c5 -11 15 -23 21 -27 6 -3 3 5 -6 20 -20 30 -30 35 -15 7z"/>
<path d="M2863 5565 c0 -8 4 -12 9 -9 5 3 6 10 3 15 -9 13 -12 11 -12 -6z"/>
<path d="M5150 5244 c0 -12 9 -32 20 -45 19 -24 19 -24 20 -3 0 12 -9 32 -20
45 -19 24 -19 24 -20 3z"/>
<path d="M2811 4964 c0 -27 4 -58 8 -68 7 -19 8 -19 16 0 7 18 8 17 15 -6 6
-19 8 -14 9 26 1 42 -3 55 -24 74 l-25 23 1 -49z"/>
<path d="M2705 4908 c21 -26 43 -44 48 -41 6 3 7 1 3 -5 -3 -6 -2 -14 4 -17 6
-4 24 -33 40 -66 l31 -60 -28 7 c-40 11 -144 54 -167 70 -24 16 -36 18 -36 4
0 -20 79 -61 166 -86 49 -14 114 -39 144 -55 l55 -30 -61 58 c-80 76 -125 144
-140 212 -9 44 -12 50 -14 26 -1 -16 -2 -34 0 -40 1 -5 -18 8 -41 30 l-42 40
38 -47z"/>
<path d="M5236 4923 c3 -15 14 -39 22 -53 13 -20 17 -22 20 -8 4 18 -21 73
-38 83 -7 4 -9 -3 -4 -22z"/>
<path d="M6913 4836 c-37 -32 -22 -50 25 -31 21 9 32 21 32 35 0 27 -23 25
-57 -4z"/>
<path d="M6511 4809 c-17 -7 -21 -13 -14 -20 16 -16 67 -7 71 14 4 19 -18 22
-57 6z"/>
<path d="M2996 4700 c3 -14 14 -40 25 -57 l18 -33 -22 0 c-13 0 -29 6 -36 13
-10 10 -11 8 -5 -7 7 -18 3 -19 -63 -14 -40 3 -79 1 -89 -5 -10 -6 -34 -11
-53 -11 -20 -1 -36 -7 -39 -15 -4 -11 3 -12 34 -5 62 14 253 8 303 -10 65 -24
211 -118 211 -136 0 -16 -210 -12 -240 5 -34 19 -61 19 -54 0 8 -20 -17 -19
-42 1 -19 15 -18 15 4 11 12 -3 20 -2 17 3 -3 4 -21 8 -40 8 -45 0 -46 -21 -2
-49 30 -18 42 -19 177 -13 184 8 244 -5 345 -75 39 -26 85 -55 102 -64 31 -15
32 -14 23 3 -5 10 -31 30 -57 46 -139 80 -189 121 -220 181 -17 32 -38 80 -48
106 -12 32 -32 59 -59 81 -50 40 -81 57 -45 25 48 -44 96 -114 112 -164 9 -27
15 -50 14 -51 -1 -1 -29 11 -62 27 -64 31 -160 123 -195 187 -15 26 -19 30
-14 12z m-229 -126 c-3 -3 -12 -4 -19 -1 -8 3 -5 6 6 6 11 1 17 -2 13 -5z"/>
<path d="M2544 4701 c-19 -19 45 -47 73 -32 48 25 43 36 -14 36 -30 0 -56 -2
-59 -4z"/>
<path d="M6440 4585 c0 -17 33 -28 60 -20 34 11 22 30 -20 32 -29 2 -40 -1
-40 -12z"/>
<path d="M7252 4560 c-45 -20 -53 -35 -24 -42 25 -7 59 8 71 31 16 29 1 32
-47 11z"/>
<path d="M6877 4545 c-27 -7 -51 -16 -54 -19 -7 -7 42 -26 67 -26 22 0 50 26
50 46 0 16 0 16 -63 -1z"/>
<path d="M2748 4515 c-37 -25 -56 -45 -41 -45 14 0 83 50 83 60 0 13 2 13 -42
-15z"/>
<path d="M3510 4490 c8 -5 22 -9 30 -9 10 0 8 3 -5 9 -27 12 -43 12 -25 0z"/>
<path d="M3568 4473 c7 -3 16 -2 19 1 4 3 -2 6 -13 5 -11 0 -14 -3 -6 -6z"/>
<path d="M7382 4398 c6 -18 56 -41 74 -34 8 3 14 15 14 26 0 17 -6 20 -46 20
-32 0 -44 -4 -42 -12z"/>
<path d="M6646 4392 c-9 -15 29 -42 68 -49 43 -7 45 -1 9 25 -36 25 -70 35
-77 24z"/>
<path d="M7050 4313 c-58 -19 -69 -30 -37 -38 38 -10 68 -2 84 22 19 29 6 34
-47 16z"/>
<path d="M8180 4244 c-94 -20 -182 -67 -256 -136 -111 -104 -166 -225 -179
-390 -21 -265 110 -476 426 -684 228 -150 289 -224 289 -352 0 -151 -98 -229
-274 -220 -117 6 -186 40 -276 134 l-70 74 -42 -48 c-24 -26 -76 -82 -116
-124 -57 -59 -72 -81 -68 -96 4 -11 41 -53 84 -94 253 -242 560 -299 810 -150
37 22 85 58 107 80 22 22 44 38 50 35 5 -4 7 -3 3 2 -4 4 9 26 28 49 106 123
148 324 109 510 -41 192 -165 342 -436 527 -128 87 -233 189 -255 245 -23 61
-15 141 19 192 60 92 207 120 323 62 74 -37 138 -101 173 -175 l27 -57 142
147 c78 81 142 151 142 155 0 15 -179 170 -248 214 -164 106 -332 139 -512
100z"/>
<path d="M7470 4230 c0 -13 54 -40 80 -40 26 0 26 15 -2 34 -25 18 -78 22 -78
6z"/>
<path d="M6433 4160 c-104 -15 -178 -37 -265 -81 -172 -86 -298 -194 -396
-337 -159 -234 -211 -385 -211 -612 0 -177 32 -307 116 -475 107 -214 281
-380 506 -485 130 -60 199 -74 372 -74 177 0 286 21 424 82 120 53 190 101
300 207 180 173 282 365 317 598 50 327 -75 673 -332 916 -184 175 -383 257
-648 266 -67 2 -149 0 -183 -5z m306 -365 c191 -46 350 -182 452 -390 21 -44
44 -104 49 -134 16 -84 12 -250 -6 -312 -71 -237 -276 -433 -510 -484 -152
-34 -339 -4 -484 77 -75 43 -197 169 -238 245 -76 145 -100 313 -68 483 47
252 250 460 511 523 47 11 234 6 294 -8z"/>
<path d="M6432 3785 c-179 -39 -355 -178 -426 -337 -40 -88 -40 -107 -1 -43
104 169 251 282 425 326 78 20 250 17 325 -5 150 -45 280 -144 398 -306 10
-14 1 9 -20 50 -52 104 -162 214 -263 263 -130 64 -294 83 -438 52z"/>
<path d="M1020 4000 l0 -160 93 3 c50 2 106 1 122 -3 18 -5 -19 -8 -92 -9 -68
0 -123 -5 -123 -9 0 -24 30 -32 127 -32 l103 0 0 -37 c0 -21 0 -317 0 -658 l0
-620 -112 -3 c-74 -2 -115 -7 -120 -15 -9 -14 -11 -261 -2 -306 l7 -31 643 0
644 0 0 175 0 175 -365 0 -365 0 0 235 0 235 210 0 c197 0 210 1 220 19 5 11
10 22 10 24 0 2 -100 5 -222 6 -123 1 -225 4 -227 7 -2 2 100 4 227 4 l232 0
0 180 0 180 -225 0 -225 0 0 215 0 215 365 0 c358 0 365 0 365 20 0 20 -7 20
-367 20 -201 0 -364 2 -362 5 3 2 170 5 372 5 l368 1 -3 157 -3 157 -647 3
-648 2 0 -160z"/>
<path d="M7360 4099 c0 -16 52 -59 71 -59 22 0 24 10 7 32 -16 19 -78 41 -78
27z"/>
<path d="M8237 3866 c-49 -18 -76 -43 -93 -83 -20 -46 -18 -50 14 -21 56 52
81 62 156 62 112 0 184 -43 300 -179 l26 -30 -16 48 c-21 62 -102 150 -168
184 -62 32 -162 40 -219 19z"/>
<path d="M7770 3427 c-1 -20 52 -131 88 -183 58 -86 181 -199 313 -287 140
-93 199 -144 246 -211 34 -51 35 -51 28 -16 -19 94 -73 154 -245 269 -228 152
-334 254 -400 381 -16 30 -29 52 -30 47z"/>
<path d="M5310 3023 c1 -36 2 -37 15 -19 19 26 19 56 0 56 -11 0 -15 -11 -15
-37z"/>
<path d="M5246 3010 c-6 -32 3 -64 30 -106 20 -29 30 -19 29 28 0 22 -4 32
-13 30 -8 -1 -10 2 -7 8 8 12 -13 70 -25 70 -4 0 -10 -14 -14 -30z"/>
<path d="M5340 2973 c-20 -74 -21 -105 -4 -99 9 3 12 1 9 -4 -3 -6 -13 -10
-21 -10 -8 0 -12 -5 -9 -10 4 -6 9 -8 13 -6 4 2 8 -8 8 -22 2 -38 21 -104 37
-126 13 -17 16 -15 40 31 34 67 60 158 51 185 -6 20 -7 19 -20 -11 -7 -18 -23
-44 -35 -59 l-21 -27 8 30 c4 17 11 38 15 47 18 33 10 78 -17 103 -15 14 -30
25 -34 25 -4 0 -13 -21 -20 -47z"/>
<path d="M5202 2915 c-13 -64 -8 -80 42 -133 32 -34 86 -69 86 -55 0 13 -41
117 -51 129 -5 6 -22 35 -38 63 l-28 52 -11 -56z"/>
<path d="M5496 2834 c-3 -9 -2 -22 4 -29 8 -9 6 -14 -5 -19 -11 -4 -14 -2 -10
7 4 6 -1 3 -10 -8 -10 -11 -29 -44 -42 -74 l-25 -53 17 -64 c9 -35 23 -68 29
-73 27 -22 86 76 86 141 0 36 -25 176 -33 184 -2 3 -7 -3 -11 -12z"/>
<path d="M5174 2777 c-9 -37 4 -114 26 -157 22 -43 43 -60 153 -118 60 -32 77
-38 73 -24 -3 9 -17 54 -31 99 l-26 82 -74 47 c-42 25 -84 57 -95 71 l-19 25
-7 -25z"/>
<path d="M3920 2723 c0 -5 26 -37 58 -73 101 -114 174 -221 160 -235 -3 -3
-32 4 -64 16 -45 17 -75 38 -122 86 -35 36 -66 62 -69 59 -10 -10 7 -55 30
-79 22 -25 83 -58 217 -120 81 -37 150 -92 194 -156 51 -74 19 -78 -150 -20
-66 22 -150 56 -188 75 -70 34 -89 36 -70 7 12 -19 246 -111 378 -149 56 -15
111 -38 127 -51 32 -28 74 -91 65 -100 -3 -3 -50 1 -103 10 -54 9 -116 14
-138 10 -23 -3 -80 0 -129 6 -49 6 -95 7 -104 2 -29 -16 9 -23 146 -26 146 -3
252 -20 345 -55 47 -18 75 -39 147 -112 90 -91 114 -122 166 -213 20 -35 29
-45 32 -32 4 21 -62 113 -205 284 -56 67 -142 175 -191 240 -50 65 -127 161
-173 213 -45 52 -100 120 -123 150 -131 177 -236 294 -236 263z"/>
<path d="M5557 2530 c-37 -29 -87 -107 -87 -135 0 -49 47 -43 80 9 18 30 45
134 37 143 -2 2 -16 -6 -30 -17z"/>
<path d="M5321 2476 c10 -9 89 -46 89 -41 0 5 -75 45 -86 45 -4 0 -5 -2 -3 -4z"/>
<path d="M7640 2329 c0 -51 140 -178 265 -240 109 -53 190 -72 310 -73 118 0
199 23 292 83 49 31 159 148 149 158 -1 2 -25 -17 -52 -42 -58 -54 -177 -117
-254 -136 -166 -40 -371 6 -540 121 -54 37 -70 51 -137 114 -22 20 -33 25 -33
15z"/>
<path d="M5096 2311 c-4 -5 -4 -15 -2 -23 2 -7 7 -25 10 -40 8 -35 82 -128
102 -128 14 0 15 8 9 47 -9 60 -26 94 -65 127 -34 28 -45 31 -54 17z"/>
<path d="M5439 2289 c-11 -21 -28 -183 -31 -294 -1 -29 5 -63 15 -80 27 -53
37 -143 31 -275 -5 -124 -6 -126 -53 -225 -26 -55 -76 -136 -110 -180 -35 -44
-89 -116 -122 -160 -73 -98 -76 -102 -91 -112 -7 -4 -39 -41 -71 -80 -32 -40
-62 -73 -67 -73 -10 0 -107 -127 -149 -196 -17 -27 -33 -62 -37 -79 -6 -24 7
-12 60 55 36 47 102 128 145 180 44 52 98 123 121 158 23 34 45 62 49 62 4 0
37 38 74 85 37 47 81 94 98 104 42 25 191 53 292 55 120 1 487 -21 522 -32 31
-10 79 -34 150 -77 40 -25 109 -34 120 -16 3 6 -11 13 -32 16 -38 6 -183 74
-183 85 0 3 35 16 78 29 156 45 182 54 199 67 42 30 -5 25 -120 -13 -159 -54
-193 -59 -246 -37 -37 15 -50 15 -99 4 -88 -20 -184 -28 -219 -18 -44 12 -42
28 3 28 20 0 34 3 32 8 -2 4 -10 19 -17 33 l-13 27 -62 -29 c-80 -37 -331 -88
-348 -71 -9 9 -9 17 -3 26 49 65 69 105 100 191 19 55 65 159 101 232 77 155
108 188 243 258 96 50 155 105 133 127 -14 14 -82 -25 -173 -98 -49 -39 -72
-51 -88 -47 -34 9 -25 37 35 110 58 70 100 141 90 151 -10 9 -81 -17 -111 -40
-37 -29 -55 -76 -55 -144 0 -31 -7 -82 -15 -113 -16 -60 -100 -231 -114 -231
-13 0 -21 27 -21 75 0 24 -12 92 -26 152 -22 93 -25 122 -21 213 3 58 12 129
21 158 14 53 6 70 -15 31z"/>
<path d="M7510 2251 c-54 -5 -72 -12 -108 -40 -23 -19 -42 -40 -42 -47 0 -15
52 -34 94 -34 39 0 101 41 121 80 16 32 19 51 8 48 -5 0 -37 -4 -73 -7z"/>
<path d="M7285 2138 c-94 -51 -106 -60 -95 -73 18 -22 127 -58 155 -51 13 3
41 21 61 38 l36 32 -64 32 c-73 38 -67 37 -93 22z"/>
<path d="M1040 2092 c0 -31 27 -32 636 -32 549 0 612 2 618 16 3 9 6 18 6 20
0 2 -283 4 -630 4 -346 0 -630 -4 -630 -8z"/>
<path d="M5273 2064 c-51 -18 -100 -66 -108 -106 -10 -43 -1 -44 23 -4 21 35
64 63 135 85 41 14 51 41 15 40 -13 0 -42 -7 -65 -15z"/>
<path d="M7084 2044 c-41 -27 -124 -104 -124 -114 0 -9 131 -40 167 -40 33 0
122 42 147 69 15 17 13 19 -40 47 -30 16 -63 37 -71 46 -21 24 -33 23 -79 -8z"/>
<path d="M6895 2027 c-79 -29 -77 -27 -118 -97 -33 -54 -34 -60 -16 -60 61 0
205 97 240 162 8 15 6 18 -18 17 -15 0 -55 -10 -88 -22z"/>
<path d="M3645 1993 c16 -65 61 -135 133 -206 68 -67 185 -167 196 -167 12 0
-9 143 -27 189 -21 52 -25 55 -112 100 -50 26 -111 61 -137 79 -57 39 -62 39
-53 5z"/>
<path d="M6726 1999 c-22 -5 -54 -20 -72 -34 -31 -24 -127 -156 -118 -164 11
-12 67 1 101 22 50 32 84 70 122 135 32 55 31 56 -33 41z"/>
<path d="M3586 1954 c-10 -16 -74 -83 -142 -149 l-125 -121 7 -44 c13 -87 15
-88 65 -44 84 73 94 77 27 11 -38 -36 -68 -74 -68 -85 0 -33 31 -112 45 -112
22 0 180 173 205 225 23 46 25 60 23 170 -1 66 -6 133 -10 149 l-9 29 -18 -29z"/>
<path d="M6527 1944 c-35 -11 -63 -30 -98 -67 -59 -62 -104 -125 -96 -133 12
-12 74 7 119 35 48 30 162 182 136 180 -7 0 -35 -7 -61 -15z"/>
<path d="M6302 1885 c-23 -7 -54 -21 -68 -30 -24 -15 -84 -99 -84 -117 0 -16
64 -8 108 13 39 19 132 119 132 142 0 11 -39 7 -88 -8z"/>
<path d="M6854 1881 c-23 -10 -45 -24 -48 -30 -8 -12 72 -55 121 -65 37 -8
107 18 136 51 18 20 17 21 -61 42 -95 25 -96 25 -148 2z"/>
<path d="M3664 1799 c8 -84 30 -150 72 -216 40 -64 163 -185 183 -181 16 3 37
57 47 123 l6 46 -59 57 c-32 31 -100 95 -151 141 -50 46 -94 87 -98 90 -4 3
-4 -24 0 -60z"/>
<path d="M5146 1772 c-15 -205 -62 -462 -101 -560 -35 -87 -137 -247 -204
-319 -65 -72 -105 -50 -76 40 8 26 21 67 29 92 l15 44 -25 -9 c-14 -6 -30 -10
-35 -10 -5 0 -9 46 -9 103 0 97 2 106 29 148 15 24 42 58 58 74 44 44 69 85
52 85 -27 0 -79 -40 -79 -60 0 -29 -63 -95 -83 -87 -9 3 -29 32 -46 64 -16 32
-44 72 -63 88 -25 23 -28 24 -12 5 30 -35 42 -61 75 -158 69 -205 64 -388 -17
-602 -40 -107 -47 -136 -48 -200 -1 -51 4 -86 16 -110 l16 -35 -5 50 c-7 63
17 158 57 234 18 33 77 105 140 171 125 130 164 183 220 302 48 102 78 214 90
344 5 54 17 148 25 209 16 105 14 168 -4 180 -5 2 -12 -35 -15 -83z"/>
<path d="M6085 1833 c-53 -27 -125 -107 -125 -138 0 -12 30 -3 87 25 40 20 70
44 91 74 18 24 32 47 32 50 0 12 -56 5 -85 -11z"/>
<path d="M6585 1775 c-66 -24 -114 -44 -107 -44 7 -1 43 -19 79 -41 55 -33 76
-40 118 -40 69 0 130 20 193 62 l52 35 -79 37 c-44 20 -93 36 -108 35 -15 -1
-82 -21 -148 -44z"/>
<path d="M4371 1744 c11 -13 9 -14 -14 -9 -34 9 -35 -4 -2 -43 28 -34 77 -57
101 -48 39 15 -29 116 -77 116 -18 0 -20 -2 -8 -16z"/>
<path d="M6252 1703 c-18 -3 -32 -8 -30 -13 2 -5 29 -36 62 -69 64 -67 93 -78
179 -68 70 8 121 24 148 46 l23 18 -67 37 c-36 20 -81 41 -99 47 -32 9 -149
10 -216 2z"/>
<path d="M6035 1675 c-27 -8 -54 -14 -60 -15 -15 -1 23 -28 79 -57 37 -19 72
-26 142 -32 l93 -6 -23 30 c-64 83 -136 108 -231 80z"/>
<path d="M5643 1631 c-36 -35 -59 -101 -36 -101 27 0 141 60 148 77 8 22 -27
53 -60 53 -13 0 -36 -13 -52 -29z"/>
<path d="M3617 1599 c-10 -13 -61 -68 -114 -122 l-96 -97 23 -50 c13 -28 32
-58 43 -67 18 -17 21 -16 78 45 81 86 99 125 98 209 0 37 -4 77 -8 87 -7 18
-8 18 -24 -5z"/>
<path d="M3670 1607 c0 -33 23 -135 37 -162 25 -49 134 -185 148 -185 13 0 55
75 55 98 0 6 -27 34 -59 63 -33 28 -85 85 -117 125 -31 41 -59 74 -61 74 -2 0
-3 -6 -3 -13z"/>
<path d="M4637 1605 c-7 -17 68 -85 95 -85 29 0 21 20 -22 62 -43 40 -64 47
-73 23z"/>
<path d="M4490 1598 c0 -7 17 -29 37 -48 l37 -35 -25 44 c-24 45 -49 64 -49
39z"/>
<path d="M4945 1455 c3 -22 12 -67 20 -100 l13 -60 1 65 c0 47 -5 74 -20 100
l-20 35 6 -40z"/>
<path d="M6111 1421 c-21 -21 -57 -108 -48 -117 11 -11 105 48 116 73 25 54
-25 87 -68 44z"/>
<path d="M3684 1378 c-13 -20 -9 -158 5 -200 8 -24 19 -38 29 -38 20 1 112 66
112 79 0 12 -82 120 -113 149 -19 18 -27 21 -33 10z"/>
<path d="M4390 1375 c0 -29 28 -70 82 -121 53 -51 112 -88 127 -82 15 5 -19
111 -46 146 -42 56 -163 97 -163 57z"/>
<path d="M3567 1282 c-31 -32 -57 -62 -57 -68 0 -22 106 -104 135 -104 3 0 5
21 5 48 0 70 -12 182 -19 182 -4 0 -32 -26 -64 -58z"/>
<path d="M4866 1311 c-18 -20 -46 -101 -46 -133 0 -17 2 -18 30 -3 37 19 60
62 60 115 0 45 -16 52 -44 21z"/>
<path d="M5446 1116 c-6 -34 -3 -52 17 -93 25 -54 43 -5 26 72 -14 62 -34 72
-43 21z"/>
<path d="M6127 1118 c10 -18 25 -53 34 -78 11 -32 22 -46 37 -48 29 -4 28 19
-1 55 -13 15 -34 45 -46 66 -28 45 -48 50 -24 5z"/>
<path d="M4417 1071 c-12 -56 13 -113 90 -209 24 -29 43 -60 44 -70 1 -40 18
25 18 73 1 61 -24 118 -75 174 -54 61 -70 67 -77 32z"/>
<path d="M5508 1027 c-14 -30 -15 -37 -1 -64 8 -17 28 -43 44 -59 l31 -29 24
28 c24 28 24 29 7 58 -10 16 -34 45 -53 64 l-36 35 -16 -33z"/>
<path d="M5764 1016 c-18 -14 -18 -15 9 -25 34 -13 87 -14 105 -2 11 6 10 11
-3 25 -20 20 -84 21 -111 2z"/>
<path d="M5641 885 c-13 -14 -27 -25 -32 -25 -5 0 -9 -8 -9 -18 0 -27 54 -87
110 -121 l50 -31 -6 27 c-14 59 -43 134 -64 163 -12 16 -22 30 -23 30 -1 0
-13 -12 -26 -25z"/>
<path d="M6120 871 c0 -25 47 -73 67 -69 27 5 26 26 -2 52 -34 32 -65 40 -65
17z"/>
<path d="M5730 876 c0 -3 21 -55 46 -114 44 -104 103 -186 121 -168 4 4 8 40
8 80 -1 85 -21 127 -80 168 -39 26 -95 47 -95 34z"/>
<path d="M5562 588 c-14 -14 -17 -108 -4 -108 14 0 40 33 47 60 8 32 -24 67
-43 48z"/>
</g>
</svg>
