<?xml version="1.0" standalone="no"?>
<!DOCTYPE svg PUBLIC "-//W3C//DTD SVG 20010904//EN"
 "http://www.w3.org/TR/2001/REC-SVG-20010904/DTD/svg10.dtd">
<svg version="1.0" xmlns="http://www.w3.org/2000/svg"
 width="921.000000pt" height="579.000000pt" viewBox="0 0 921.000000 579.000000"
 preserveAspectRatio="xMidYMid meet">

<g transform="translate(0.000000,579.000000) scale(0.100000,-0.100000)"
fill="#000000" stroke="none">
<path d="M2190 5638 c0 -6 7 -8 14 -5 10 4 13 1 10 -7 -3 -7 5 -20 18 -28 43
-28 270 -248 257 -248 -5 0 -54 41 -109 91 -56 51 -103 89 -105 87 -3 -3 35
-43 84 -91 54 -52 81 -84 68 -82 -11 3 -27 11 -36 18 -9 8 -27 20 -41 27 -14
7 10 -20 53 -60 43 -40 76 -75 73 -77 -4 -5 -119 76 -194 135 -42 34 -62 38
-45 8 4 -8 42 -52 83 -97 40 -45 64 -77 53 -70 -27 14 -32 14 -29 -1 4 -24 22
-48 56 -73 37 -27 31 -33 -10 -10 -14 8 -35 14 -47 15 -12 0 -61 20 -109 46
-47 25 -92 44 -100 42 -15 -3 136 -118 155 -118 6 0 11 -5 11 -10 0 -7 -7 -7
-21 0 -11 6 -25 9 -32 6 -7 -2 -4 -5 6 -5 9 -1 17 -6 17 -11 0 -6 12 -15 26
-20 14 -6 22 -15 19 -20 -4 -6 -1 -9 6 -8 6 2 14 -3 16 -9 3 -8 -4 -13 -16
-13 -14 0 -21 6 -21 20 0 11 -3 19 -7 18 -13 -3 -53 13 -53 22 0 4 -9 10 -20
13 -30 8 -17 -7 56 -60 71 -52 72 -71 2 -27 -24 15 -45 27 -48 27 -3 -1 -12 4
-20 10 -8 6 -6 2 4 -11 10 -12 41 -36 68 -53 27 -17 47 -33 45 -35 -6 -6 -93
40 -134 72 -51 39 -68 39 -38 0 27 -36 215 -152 270 -167 19 -6 35 -15 35 -20
0 -6 8 -8 18 -5 9 3 24 1 32 -5 12 -8 10 -9 -8 -4 -22 6 -23 5 -13 -14 15 -28
9 -27 -105 14 -100 36 -119 41 -94 25 25 -16 -41 -12 -90 5 -24 8 -45 14 -46
12 -12 -11 221 -139 294 -162 13 -4 22 -9 19 -11 -6 -6 -98 25 -147 51 -25 13
-59 26 -75 29 -25 5 -27 3 -14 -9 23 -22 158 -91 229 -116 68 -25 63 -37 -7
-21 -34 8 -40 7 -39 -6 2 -9 11 -19 22 -24 15 -7 13 -8 -8 -5 -15 2 -25 0 -22
-4 3 -5 13 -9 22 -9 9 0 26 -8 37 -17 l20 -16 -20 8 c-11 4 -42 13 -69 20 -28
7 -55 20 -62 29 -15 21 -24 20 -24 -1 0 -14 -2 -14 -18 -2 -10 8 -3 0 16 -18
18 -17 73 -47 122 -67 83 -33 114 -40 285 -67 39 -6 84 -16 100 -24 27 -12 23
-12 -45 -8 -41 3 -106 11 -145 19 -170 36 -236 40 -139 10 65 -20 31 -20 -43
-1 -67 18 -143 34 -143 30 0 -8 92 -54 136 -69 76 -26 253 -66 267 -60 7 2 42
-2 77 -11 60 -13 61 -14 15 -9 -27 3 -59 7 -70 10 -56 13 70 -41 186 -80 72
-25 134 -48 137 -51 12 -12 -39 -3 -145 25 -130 34 -209 65 -226 91 -10 13
-37 20 -112 28 -55 6 -133 18 -174 27 -40 8 -76 13 -78 10 -6 -5 28 -25 82
-48 43 -18 25 -25 -22 -8 l-28 10 25 -20 c15 -12 33 -17 45 -13 11 3 27 8 35
10 12 4 12 3 2 -5 -10 -7 -2 -11 30 -17 35 -6 39 -8 23 -15 -12 -4 -34 -2 -54
6 -19 8 -36 13 -38 11 -4 -4 25 -19 95 -48 29 -12 51 -24 48 -26 -5 -6 -114
34 -136 49 -8 6 -3 -1 12 -15 15 -14 63 -37 108 -52 45 -15 79 -29 76 -32 -2
-3 -39 2 -81 11 -91 19 -88 19 -80 7 9 -15 206 -89 282 -106 78 -18 143 -44
143 -57 0 -6 -17 -7 -40 -3 -123 21 -190 26 -190 15 0 -11 40 -34 40 -23 0 4
5 0 11 -10 19 -32 121 -69 279 -101 139 -28 149 -31 102 -34 -28 -2 -52 -7
-52 -13 0 -13 -64 -11 -137 5 -88 19 -84 9 23 -50 66 -37 218 -76 327 -84 137
-10 135 -24 -3 -18 -63 3 -106 2 -95 -2 17 -6 14 -9 -17 -15 -20 -4 -47 -4
-60 0 -19 5 -20 4 -8 -5 12 -10 11 -11 -7 -7 -33 7 -28 0 15 -22 33 -16 89
-35 225 -72 27 -7 37 -15 33 -25 -5 -14 7 -16 109 -16 28 0 16 -4 -40 -14 -92
-17 -128 -30 -121 -43 11 -18 97 -40 205 -52 61 -7 111 -16 111 -19 0 -3 -16
-16 -36 -29 -32 -22 -34 -25 -17 -35 11 -7 73 -10 161 -9 78 1 142 0 142 -2 0
-5 -85 -64 -115 -81 -108 -59 -134 -72 -160 -78 -36 -9 -109 -55 -101 -63 3
-4 -30 -19 -74 -34 -92 -32 -132 -53 -88 -46 16 2 25 0 21 -6 -3 -5 3 -7 13
-4 11 3 39 2 64 -3 l45 -7 -40 -2 c-22 -1 -83 -10 -135 -20 -52 -10 -99 -16
-105 -12 -5 3 8 9 30 12 39 6 39 6 -12 8 -74 2 -67 21 7 21 33 0 60 3 60 8 0
4 -43 50 -95 102 -52 52 -95 97 -95 100 0 3 70 4 155 2 151 -3 155 -2 155 18
0 19 -5 20 -174 20 -115 0 -177 4 -182 11 -4 8 40 10 155 7 88 -1 161 -1 161
1 0 3 -66 69 -147 148 l-148 143 -697 0 -698 0 0 -148 0 -148 185 4 c130 3
185 1 185 -7 0 -7 -57 -11 -180 -13 -131 -2 -177 -6 -172 -14 10 -16 76 -23
225 -23 l127 -1 0 -760 0 -759 43 -48 c23 -26 72 -79 107 -117 189 -201 190
-201 191 -103 0 34 0 450 -1 925 l-1 862 165 0 166 0 0 -830 c0 -456 2 -830 5
-830 3 0 11 4 18 10 44 36 127 98 150 114 47 29 42 10 -6 -22 -55 -38 -139
-129 -159 -174 -20 -41 -31 -144 -21 -180 l8 -27 80 64 c156 125 177 147 209
215 26 54 31 77 31 137 0 80 4 81 31 8 40 -109 77 -143 251 -230 48 -24 90
-40 91 -34 6 15 -72 168 -105 208 -150 184 -262 268 -375 279 -26 2 -45 8 -42
13 11 18 91 9 140 -16 27 -14 50 -25 52 -25 1 0 2 191 2 424 0 265 4 427 10
431 5 3 17 -4 27 -16 21 -25 14 -18 153 -169 58 -63 110 -119 116 -125 6 -5
51 -55 100 -110 127 -142 209 -229 374 -395 80 -81 174 -178 210 -216 36 -38
129 -137 206 -219 161 -171 203 -218 259 -295 l40 -55 7 50 c3 28 6 388 6 800
0 413 3 758 7 767 6 16 10 16 35 3 25 -13 29 -13 41 1 12 14 14 14 26 -2 7
-10 13 -13 13 -8 0 12 58 6 65 -7 8 -11 -34 -32 -51 -25 -9 3 -12 2 -9 -5 4
-6 -2 -13 -14 -16 -25 -6 -27 -16 -5 -34 12 -10 20 -10 34 -1 11 6 37 15 59
18 32 5 42 3 47 -10 10 -25 34 -19 34 9 0 22 3 24 25 15 30 -11 85 -2 85 14 0
7 -5 17 -11 23 -6 6 -8 17 -4 23 9 14 75 6 104 -12 15 -9 22 -7 40 11 15 15
33 21 66 21 32 0 45 4 45 14 0 21 -35 29 -94 21 l-53 -6 -51 51 c-29 29 -52
58 -52 67 0 12 2 12 16 -1 9 -9 29 -15 48 -13 31 2 33 4 31 39 l-2 37 25 -20
25 -20 14 38 c7 21 13 47 13 57 0 19 1 18 23 -2 31 -29 33 -28 47 13 6 19 18
35 26 35 9 0 14 10 14 28 0 40 13 57 30 37 20 -24 29 -18 36 25 4 24 12 40 20
40 8 0 14 11 15 28 l1 27 11 -32 c7 -18 20 -40 30 -50 16 -16 17 -16 17 7 0
14 3 36 7 49 6 23 7 23 13 5 6 -16 12 -12 39 30 17 28 31 44 31 37 0 -7 4 -10
10 -6 5 3 6 13 3 22 -4 11 -2 14 5 9 6 -4 18 5 28 21 10 15 24 39 32 53 l15
24 10 -22 c6 -12 13 -22 16 -22 3 0 26 29 51 65 25 35 50 64 55 65 6 0 19 13
30 29 10 16 23 27 27 25 4 -3 8 5 9 18 0 13 3 17 6 10 4 -10 9 -9 24 4 15 13
19 14 20 3 0 -8 9 5 19 29 11 23 26 42 33 42 8 0 21 9 28 20 11 16 45 24 180
46 173 27 205 37 180 53 -15 10 -123 27 -229 37 -72 7 -73 7 -133 66 -33 32
-66 57 -72 55 -7 -2 -20 0 -29 5 -11 5 -18 5 -18 0 0 -5 -21 1 -47 14 -53 26
-78 30 -67 12 5 -8 2 -9 -12 -4 -10 5 -36 10 -58 13 -37 6 -38 5 -31 -18 7
-22 7 -23 -10 -9 -14 11 -17 11 -11 1 7 -10 4 -12 -12 -7 -23 8 -142 16 -142
10 0 -2 15 -10 33 -17 30 -13 26 -14 -58 -12 -49 2 -99 -1 -110 -5 -19 -7 -19
-8 5 -18 24 -9 24 -10 -15 -18 -37 -7 -38 -8 -15 -15 17 -5 2 -7 -45 -8 -42
-1 -65 -5 -57 -10 20 -12 -9 -21 -71 -21 -48 -1 -50 -2 -33 -15 19 -15 19 -15
-5 -15 -34 0 -107 45 -186 116 -332 298 -524 468 -683 604 -73 63 -439 358
-505 407 -24 17 -94 81 -157 142 -116 112 -161 151 -173 151 -8 0 35 -62 55
-77 8 -7 12 -13 8 -13 -5 0 -27 17 -49 38 l-42 37 17 -33 c9 -18 25 -41 34
-51 30 -31 128 -146 137 -160 15 -25 -67 40 -131 104 -33 33 -66 69 -72 80
-10 18 -11 16 -12 -17 0 -34 14 -79 33 -103 4 -5 18 -27 32 -48 21 -32 22 -36
6 -28 -10 6 -21 17 -25 26 -7 19 -25 19 -32 0 -4 -8 9 -33 28 -57 l33 -43 -31
25 c-54 43 -147 122 -199 170 -51 47 -111 92 -224 171 -35 24 -84 59 -110 76
-25 18 -52 33 -60 33 -8 0 -22 7 -31 15 -15 13 -17 13 -17 0 0 -15 34 -45 158
-142 57 -46 40 -41 -24 5 -78 58 -87 59 -37 8 25 -26 57 -53 72 -61 14 -8 32
-20 40 -28 7 -7 34 -28 61 -45 26 -18 47 -35 47 -37 0 -3 -21 9 -47 25 -120
73 -133 79 -120 59 6 -10 16 -19 21 -19 5 0 23 -13 40 -30 173 -167 208 -201
203 -206 -17 -18 -184 118 -418 339 -36 34 -87 78 -114 97 -26 19 -65 50 -87
68 -22 17 -44 30 -48 27 -5 -3 -12 0 -16 6 -4 8 -3 9 4 5 27 -17 9 4 -35 40
-26 21 -44 32 -39 24 6 -12 5 -12 -6 0 -18 21 -80 64 -95 66 -7 1 -13 -2 -13
-8z m332 -472 c31 -14 85 -43 121 -65 36 -22 68 -37 73 -33 4 4 4 2 1 -4 -4
-6 19 -25 56 -44 34 -18 82 -44 106 -56 24 -13 49 -28 56 -34 6 -5 14 -8 17
-5 3 3 32 -8 64 -24 32 -17 55 -30 51 -31 -5 0 -17 5 -28 10 -12 7 -19 7 -19
1 0 -5 28 -26 63 -47 67 -41 154 -104 143 -104 -4 0 -50 21 -102 47 -106 52
-150 88 -134 109 13 14 -4 29 -21 19 -5 -4 -18 0 -27 8 -9 8 -42 26 -72 40
-193 90 -307 139 -322 140 -9 1 -14 5 -12 9 3 5 -3 11 -13 15 -33 12 -73 44
-73 59 0 19 9 18 72 -10z m499 -63 c13 -16 12 -17 -3 -4 -17 13 -22 21 -14 21
2 0 10 -8 17 -17z m-446 -81 c39 -18 81 -38 95 -45 23 -11 86 -57 78 -57 -2 0
-22 9 -45 20 -22 10 -58 26 -79 33 -22 8 -48 18 -59 22 -29 11 88 -71 143
-100 26 -14 54 -25 62 -25 12 0 12 -2 2 -9 -11 -6 -7 -13 14 -30 42 -33 7 -25
-82 18 -147 71 -254 160 -254 212 0 17 3 18 28 6 15 -7 59 -27 97 -45z m980
-129 c35 -20 63 -39 61 -41 -3 -2 -25 8 -50 22 -25 14 -46 21 -46 16 0 -15 71
-91 105 -112 17 -10 25 -18 20 -18 -31 0 -185 131 -185 157 0 22 28 15 95 -24z
m-689 -185 c3 -4 -2 -5 -13 -2 -94 22 -141 37 -170 54 -54 32 -53 23 2 -13 28
-18 91 -50 140 -71 113 -48 135 -58 113 -52 -10 3 -18 3 -18 0 0 -4 22 -14 90
-40 54 -20 5 -17 -70 5 -96 28 -195 68 -238 95 -51 33 -110 97 -94 103 6 3 10
8 8 12 -6 8 240 -81 250 -91z m662 -30 c34 -12 62 -25 62 -30 0 -4 17 -17 38
-28 38 -21 107 -69 164 -114 l33 -26 -30 12 c-71 31 -157 83 -187 115 -18 19
-50 43 -71 54 -40 21 -66 17 -46 -7 18 -22 -2 -16 -28 8 -46 43 -27 48 65 16z
m157 -59 c22 -10 29 -16 15 -12 -14 3 -43 14 -65 24 -22 11 -29 16 -15 13 14
-3 43 -15 65 -25z m-333 -68 c24 -4 42 -13 41 -19 -2 -6 22 -26 52 -44 49 -29
68 -48 48 -48 -5 0 -51 22 -103 48 -62 31 -96 53 -98 66 -3 11 0 16 7 12 6 -4
30 -10 53 -15z m-227 -53 c30 -16 55 -32 55 -35 0 -14 -115 22 -142 45 -50 42
3 36 87 -10z m925 25 c55 -37 91 -73 73 -73 -22 0 -91 48 -104 72 -12 23 -1
23 31 1z m200 -152 c14 -12 19 -21 12 -21 -18 0 -92 48 -92 60 0 12 42 -9 80
-39z m-485 24 c63 -14 69 -17 54 -26 -11 -8 -10 -12 6 -25 19 -15 18 -16 -15
-9 -40 8 -110 50 -110 66 0 6 8 8 18 5 9 -3 31 -8 47 -11z m400 -125 c18 -8
18 -9 -5 -9 -14 0 -32 4 -40 9 -12 8 -12 10 5 9 11 0 29 -4 40 -9z m-428 -16
c-3 -3 -12 -4 -19 -1 -8 3 -5 6 6 6 11 1 17 -2 13 -5z m-302 -14 l30 -8 -33
-1 c-43 -1 -34 -16 32 -48 l51 -25 -39 6 c-45 6 -116 50 -116 71 0 16 25 18
75 5z m335 -24 c28 -13 46 -26 39 -28 -6 -2 7 -10 31 -17 23 -7 40 -15 37 -18
-13 -13 -177 59 -177 77 0 15 13 12 70 -14z m439 -12 c18 -9 30 -18 28 -21 -3
-2 -22 5 -44 16 -45 24 -31 28 16 5z m271 -60 c23 -9 39 -18 37 -20 -2 -3 -24
4 -48 15 -54 24 -45 27 11 5z m-1343 -77 c82 -26 103 -40 52 -32 -26 4 -29 3
-14 -4 36 -17 4 -11 -81 15 -83 25 -100 35 -89 53 5 10 7 9 132 -32z m455 -16
c2 -5 32 -16 68 -24 l65 -16 -65 3 c-67 4 -123 22 -114 37 7 12 41 11 46 0z
m-852 -31 c13 -8 13 -10 -2 -10 -9 0 -20 5 -23 10 -8 13 5 13 25 0z m1386 -16
c31 -9 52 -20 48 -26 -10 -15 -114 15 -114 33 0 12 3 12 66 -7z m190 -13 c-20
-8 -20 -8 0 -14 31 -12 70 -37 56 -37 -20 0 -82 28 -82 38 0 13 12 22 29 21
12 0 11 -2 -3 -8z m-442 -28 l41 -13 -53 3 c-29 2 -55 7 -58 10 -10 9 7 28 18
21 6 -4 29 -13 52 -21z m1776 3 c0 -2 -19 -9 -42 -14 -24 -5 -52 -13 -62 -17
-14 -6 -17 -5 -12 3 11 18 116 43 116 28z m-2165 -35 c22 -5 32 -9 22 -10 -10
0 -15 -5 -12 -11 10 -16 -42 -12 -75 5 -17 9 -30 18 -30 20 0 7 50 5 95 -4z
m2204 -55 c-3 -3 -11 5 -18 17 -13 21 -12 21 5 5 10 -10 16 -20 13 -22z
m-1034 -7 l30 -20 -40 7 c-22 3 -47 13 -55 20 -24 23 29 18 65 -7z m651 -26
c-7 -7 -65 7 -71 17 -3 4 13 3 35 -2 23 -6 39 -13 36 -15z m313 -24 c9 0 11
-3 4 -5 -15 -7 -73 23 -73 37 0 6 12 1 26 -10 15 -12 34 -21 43 -22z m-1409
21 c14 -4 18 -9 10 -10 -8 -1 -4 -6 10 -10 23 -7 24 -8 3 -9 -37 -2 -123 20
-117 30 6 11 59 10 94 -1z m1460 -5 c-7 -8 -17 -15 -23 -15 -6 0 -2 7 9 15 25
19 30 19 14 0z m315 9 c-5 -2 -50 -15 -100 -29 -49 -15 -111 -38 -137 -52 -27
-15 -51 -24 -53 -21 -10 9 157 88 205 97 46 9 103 13 85 5z m-1028 -10 c-3 -3
-12 -4 -19 -1 -8 3 -5 6 6 6 11 1 17 -2 13 -5z m-1147 -14 c14 -4 19 -8 12 -9
-7 -1 -10 -5 -7 -11 8 -13 -24 -13 -64 1 -57 20 -1 38 59 19z m678 -7 c2 -8
-6 -13 -21 -13 -32 0 -57 9 -57 22 0 14 73 5 78 -9z m525 10 c-7 -2 -21 -2
-30 0 -10 3 -4 5 12 5 17 0 24 -2 18 -5z m244 -9 c-3 -3 -12 -4 -19 -1 -8 3
-5 6 6 6 11 1 17 -2 13 -5z m71 -31 c-15 -2 -42 -2 -60 0 -18 2 -6 4 27 4 33
0 48 -2 33 -4z m102 -33 c14 0 4 -34 -11 -38 -11 -3 -11 -1 1 8 12 9 8 10 -17
5 -35 -7 -81 9 -53 19 8 2 22 7 30 9 8 3 21 4 28 1 8 -2 17 -4 22 -4z m-495
-10 c-3 -5 -15 -10 -25 -10 -10 0 -22 5 -25 10 -4 6 7 10 25 10 18 0 29 -4 25
-10z m-929 -15 c17 -13 14 -14 -38 -15 -31 0 -64 3 -74 7 -16 6 -16 7 2 14 32
13 89 10 110 -6z m649 -5 c-3 -5 -26 -10 -51 -10 -24 0 -44 5 -44 10 0 6 23
10 51 10 31 0 48 -4 44 -10z m880 0 c-3 -5 -12 -10 -18 -10 -7 0 -6 4 3 10 19
12 23 12 15 0z m-1830 -20 c-11 -5 -31 -8 -45 -8 l-25 0 25 8 c14 4 34 8 45 8
l20 1 -20 -9z m1775 -10 c-27 -21 -45 -26 -35 -9 6 9 41 27 55 28 3 0 -6 -8
-20 -19z m-2311 -6 c9 -8 -45 -2 -64 6 -14 7 -8 8 20 3 22 -3 42 -7 44 -9z
m1137 1 c-27 -20 -76 -28 -106 -17 -25 10 -25 10 10 20 19 6 53 10 75 11 37 0
39 -1 21 -14z m-679 -1 c-3 -3 -12 -4 -19 -1 -8 3 -5 6 6 6 11 1 17 -2 13 -5z
m12 -24 c26 -14 -31 -23 -95 -15 -54 6 -61 17 -19 28 25 7 93 -1 114 -13z
m1281 0 c-14 -4 -47 -8 -75 -8 -39 0 -45 2 -25 8 14 4 48 8 75 8 39 0 45 -2
25 -8z m170 -20 c0 -5 -17 -10 -37 -10 -28 0 -34 3 -23 10 20 13 60 13 60 0z
m-345 -10 c8 -13 -5 -13 -25 0 -13 8 -13 10 2 10 9 0 20 -4 23 -10z m-850 -40
c9 -15 -17 -22 -71 -18 -46 3 -47 4 -24 15 31 15 87 16 95 3z m1365 -40 c-19
-17 -48 -37 -63 -46 -26 -14 -27 -14 -16 3 15 24 80 72 99 73 8 0 -1 -13 -20
-30z m-455 -13 c-28 -20 -85 -38 -85 -27 0 4 19 15 43 23 54 20 67 21 42 4z
m-1300 -7 c-22 -5 -78 -8 -125 -8 -110 1 -43 14 80 15 69 1 78 -1 45 -7z m635
-4 c0 -13 -48 -29 -112 -39 -58 -9 -13 27 53 43 51 12 59 11 59 -4z m1313 -41
c-3 -9 -8 -14 -10 -11 -3 3 -2 9 2 15 9 16 15 13 8 -4z m-468 -20 c-44 -36
-113 -71 -122 -61 -8 8 -2 12 76 58 58 34 86 36 46 3z m-1250 -34 c-12 -11
-158 -51 -183 -50 -28 0 76 39 132 48 28 5 53 9 56 10 2 0 0 -3 -5 -8z m774
-30 c-34 -26 -85 -51 -104 -51 -32 0 -8 25 46 47 67 28 90 29 58 4z m-258 -20
c-44 -34 -134 -50 -103 -19 8 8 91 33 122 37 3 0 -6 -8 -19 -18z m388 -18
c-28 -32 -41 -43 -52 -43 -16 0 14 40 41 54 38 21 39 20 11 -11z m471 0 c0 -5
-10 -19 -21 -33 l-21 -25 18 33 c18 32 24 38 24 25z m-2440 -54 c0 -5 -68 -9
-162 -8 -92 0 -154 4 -143 8 29 12 305 12 305 0z m1699 -32 c-2 -2 -20 -14
-39 -26 l-35 -23 28 26 c15 14 33 26 39 26 6 0 9 -1 7 -3z m-279 -22 c-17 -16
-90 -48 -90 -39 0 18 57 52 90 53 13 1 13 -1 0 -14z m860 -14 c-12 -23 -71
-61 -94 -61 -11 0 -16 6 -14 18 2 9 10 16 18 15 8 -1 33 8 55 21 22 13 41 25
43 25 1 1 -2 -8 -8 -18z m-355 -26 c-24 -21 -34 -35 -24 -35 8 0 20 5 27 12 6
6 15 9 18 5 11 -11 -84 -49 -114 -45 -25 3 -24 5 23 30 28 14 61 35 75 47 42
35 38 23 -5 -14z m-1025 -45 c-20 -13 -33 -13 -25 0 3 6 14 10 23 10 15 0 15
-2 2 -10z m740 -10 c12 -7 7 -12 -22 -25 -21 -8 -45 -15 -55 -15 -15 1 -13 5
10 25 30 27 44 30 67 15z m-704 -15 c-11 -8 -24 -15 -30 -15 -5 0 -1 7 10 15
10 8 24 14 29 14 6 0 1 -6 -9 -14z m-86 -39 c-26 -14 -89 -31 -80 -22 7 6 81
33 95 34 6 1 -1 -5 -15 -12z m469 -3 c-12 -15 -12 -16 4 -10 46 18 48 16 7 -7
-51 -29 -105 -36 -80 -12 13 13 69 46 79 46 2 0 -3 -8 -10 -17z m851 -21 c0
-5 -6 -16 -13 -27 -11 -14 -16 -15 -22 -5 -5 8 -4 11 2 7 6 -4 13 2 16 13 5
20 17 28 17 12z m-1255 -12 c-3 -5 -12 -10 -18 -10 -7 0 -6 4 3 10 19 12 23
12 15 0z m-36 -13 c-2 -1 -13 -9 -24 -17 -19 -14 -19 -14 -6 3 7 9 18 17 24
17 6 0 8 -1 6 -3z m700 -52 c-12 -19 -23 -35 -25 -35 -6 0 14 40 29 58 18 23
16 12 -4 -23z m502 22 c-6 -8 -8 -17 -5 -20 3 -3 -1 -16 -10 -29 -9 -12 -16
-17 -16 -11 0 7 5 15 11 18 6 4 8 13 5 20 -2 7 1 18 7 24 15 15 22 14 8 -2z
m-1346 -36 c-170 -108 -280 -162 -328 -160 -12 0 3 9 34 18 31 10 76 31 100
48 24 16 73 44 109 63 36 18 76 42 89 52 13 10 31 18 40 18 9 0 -11 -17 -44
-39z m120 -16 c-52 -32 -68 -32 -25 0 19 14 41 25 49 25 9 0 -2 -11 -24 -25z
m426 -34 c13 -12 18 -25 14 -32 -5 -8 -4 -10 3 -5 7 4 16 -3 21 -18 8 -18 15
-23 31 -19 21 6 80 -14 91 -30 4 -6 13 -8 20 -5 8 3 18 6 23 6 5 0 13 6 17 14
5 7 9 -151 9 -356 l0 -369 -72 75 c-40 42 -102 107 -138 145 -36 38 -137 145
-224 238 -223 238 -220 234 -214 240 5 6 122 49 283 106 96 34 110 35 136 10z
m-491 4 c0 -6 -137 -75 -147 -75 -6 1 134 77 145 80 1 0 2 -2 2 -5z m1428 -32
c11 -34 7 -39 -16 -24 -9 5 -11 17 -6 35 7 31 8 31 22 -11z m-1208 12 c-14 -8
-29 -14 -35 -14 -5 0 1 6 15 14 14 8 30 14 35 14 6 0 -1 -6 -15 -14z m854 2
c-6 -16 -64 -61 -64 -51 0 6 60 62 67 64 1 0 0 -6 -3 -13z m64 -7 c-7 -10 -14
-17 -17 -15 -4 4 18 35 25 35 2 0 -1 -9 -8 -20z m229 -12 c-3 -8 -6 -5 -6 6
-1 11 2 17 5 13 3 -3 4 -12 1 -19z m-567 9 c0 -2 -10 -12 -22 -23 l-23 -19 19
23 c18 21 26 27 26 19z m-640 -16 c-8 -5 -26 -11 -40 -15 -21 -5 -20 -3 5 9
32 15 60 20 35 6z m690 -21 c-6 -11 -13 -20 -16 -20 -2 0 0 9 6 20 6 11 13 20
16 20 2 0 0 -9 -6 -20z m146 -7 c-2 -9 -11 -17 -20 -19 -17 -2 -17 -2 0 17 21
23 23 23 20 2z m514 -5 c0 -5 -9 -4 -20 2 -11 6 -20 12 -20 14 0 2 9 2 20 -1
11 -3 20 -9 20 -15z m-1675 -7 c-19 -19 -154 -71 -182 -70 -18 0 7 12 70 34
54 18 101 36 104 39 4 3 9 6 12 6 3 0 1 -4 -4 -9z"/>
<path d="M2665 5380 c10 -11 20 -20 23 -20 3 0 -3 9 -13 20 -10 11 -20 20 -23
20 -3 0 3 -9 13 -20z"/>
<path d="M2280 5211 c14 -11 30 -21 35 -21 11 0 -7 14 -40 31 -13 7 -12 3 5
-10z"/>
<path d="M2177 4919 c7 -7 15 -10 18 -7 3 3 -2 9 -12 12 -14 6 -15 5 -6 -5z"/>
<path d="M2230 4895 c14 -8 30 -14 35 -14 6 0 -1 6 -15 14 -14 8 -29 14 -35
14 -5 0 1 -6 15 -14z"/>
<path d="M2377 4649 c7 -7 15 -10 18 -7 3 3 -2 9 -12 12 -14 6 -15 5 -6 -5z"/>
<path d="M4800 4632 c0 -27 30 -66 42 -54 7 7 3 21 -11 41 -26 36 -31 38 -31
13z"/>
<path d="M2081 4368 c0 -39 17 -101 18 -70 1 6 7 12 15 12 8 0 17 -6 19 -12 3
-7 6 5 6 28 1 27 -5 46 -16 56 -38 33 -43 31 -42 -14z"/>
<path d="M1965 4312 c22 -24 47 -48 56 -52 14 -8 15 -4 5 43 -6 30 -12 44 -14
32 -7 -37 -21 -40 -54 -9 -24 21 -22 17 7 -14z m53 -37 c-3 -3 -9 2 -12 12 -6
14 -5 15 5 6 7 -7 10 -15 7 -18z"/>
<path d="M4901 4318 c8 -29 24 -47 42 -48 14 0 7 27 -14 54 -28 35 -40 33 -28
-6z"/>
<path d="M6870 4263 c-21 -8 -50 -34 -50 -45 0 -11 60 0 78 14 29 24 10 45
-28 31z"/>
<path d="M2075 4189 l26 -50 -28 7 c-15 4 -66 20 -113 36 -131 45 -127 44
-112 26 7 -9 29 -24 49 -33 46 -22 193 -57 210 -50 8 2 12 1 9 -3 -2 -4 23
-17 57 -29 l62 -22 -35 27 c-19 15 -61 53 -92 84 l-58 57 25 -50z"/>
<path d="M6378 4223 c-35 -9 -17 -24 24 -21 47 3 67 29 21 27 -15 -1 -36 -3
-45 -6z"/>
<path d="M2290 4136 c0 -5 12 -29 26 -54 l26 -45 -31 5 c-17 2 -32 1 -33 -4
-2 -5 -42 -9 -90 -9 -49 0 -90 -5 -93 -10 -4 -5 21 -9 57 -9 134 0 227 -19
335 -67 56 -25 112 -57 124 -70 l22 -23 -125 0 c-89 0 -136 4 -161 15 -20 8
-47 15 -59 14 -13 0 -17 -3 -10 -6 6 -2 12 -9 12 -14 0 -15 -33 -10 -68 11
-32 20 -52 19 -52 0 0 -5 15 -17 33 -27 28 -16 60 -18 247 -18 238 0 270 -6
382 -76 63 -38 131 -64 126 -47 -5 13 -15 20 -83 50 -27 12 -84 41 -126 65
-80 45 -130 103 -160 186 -15 41 -34 62 -94 98 -37 22 -35 19 19 -33 39 -37
66 -74 78 -104 9 -27 16 -50 13 -52 -2 -3 -34 8 -72 23 -71 28 -190 124 -225
180 -10 17 -18 26 -18 21z"/>
<path d="M1827 4123 c-50 -3 -57 -6 -47 -19 18 -20 74 -17 101 6 13 10 20 19
14 18 -5 -1 -36 -3 -68 -5z"/>
<path d="M6294 4019 c-8 -14 42 -32 70 -25 43 11 31 31 -19 32 -25 1 -48 -2
-51 -7z"/>
<path d="M2020 4010 c25 -8 25 -8 -4 -9 -16 -1 -27 -4 -23 -7 3 -3 25 -3 48 1
47 8 36 25 -16 24 -29 -1 -29 -1 -5 -9z"/>
<path d="M7223 3983 c-44 -22 -42 -33 5 -33 35 0 72 22 72 43 0 12 -44 6 -77
-10z"/>
<path d="M6812 3976 c-60 -12 -67 -27 -20 -39 34 -9 73 5 82 29 8 20 -4 22
-62 10z"/>
<path d="M1997 3939 c-22 -11 -37 -23 -34 -25 5 -6 87 33 87 41 0 9 -14 4 -53
-16z"/>
<path d="M2228 3883 c7 -3 16 -2 19 1 4 3 -2 6 -13 5 -11 0 -14 -3 -6 -6z"/>
<path d="M7390 3839 c0 -14 66 -40 84 -33 9 3 16 15 16 25 0 16 -8 19 -50 19
-28 0 -50 -5 -50 -11z"/>
<path d="M6530 3831 c0 -16 40 -39 83 -46 44 -8 48 4 10 27 -37 21 -93 33 -93
19z"/>
<path d="M7035 3765 c-5 -2 -29 -9 -53 -15 -52 -13 -46 -30 12 -30 29 0 48 6
59 18 26 28 18 40 -18 27z"/>
<path d="M8370 3703 c-178 -31 -293 -81 -388 -168 -123 -113 -167 -213 -166
-385 0 -118 15 -171 72 -255 93 -137 237 -247 488 -374 133 -68 226 -146 251
-209 24 -62 21 -130 -8 -184 -45 -82 -186 -128 -329 -108 -129 18 -194 47
-281 122 -43 38 -81 68 -85 68 -3 0 -51 -39 -106 -87 -56 -49 -115 -100 -132
-114 -28 -25 -29 -29 -18 -51 20 -36 175 -151 267 -197 44 -22 75 -40 70 -40
-21 -2 -162 76 -231 127 -40 29 -75 52 -78 52 -14 0 -4 -22 26 -56 65 -74 248
-175 393 -216 68 -19 104 -22 240 -23 178 0 239 14 353 78 56 31 164 130 159
146 -1 4 24 34 55 66 31 32 62 70 69 86 6 16 15 29 19 29 4 0 16 26 26 58 23
70 26 264 5 327 -22 67 -96 177 -158 235 -55 51 -263 200 -281 200 -16 0 -208
119 -267 164 -77 60 -105 106 -105 171 0 130 110 203 289 193 59 -3 93 -12
144 -36 79 -36 157 -106 182 -162 10 -22 22 -40 26 -40 9 0 171 134 272 225
l62 56 -30 25 c-16 13 -52 40 -80 59 -27 19 -68 47 -90 63 -91 64 -246 126
-364 147 -78 14 -214 18 -271 8z m461 -1903 c-51 -43 -185 -107 -276 -131
-109 -28 -266 -29 -392 -1 -51 12 -105 28 -120 37 -15 9 -21 14 -13 12 226
-67 352 -75 525 -37 62 13 243 100 269 129 11 12 24 21 30 21 6 -1 -4 -14 -23
-30z"/>
<path d="M7498 3677 c17 -21 78 -41 99 -33 29 12 -9 38 -63 44 -44 5 -48 4
-36 -11z"/>
<path d="M6220 3605 c-150 -21 -327 -91 -481 -190 -82 -53 -223 -189 -292
-282 -71 -95 -135 -228 -153 -313 -28 -134 -18 -310 23 -435 15 -48 98 -204
113 -215 4 -3 14 -18 23 -35 8 -16 53 -66 99 -111 330 -320 786 -427 1273
-299 121 32 165 48 266 102 244 128 465 370 523 573 50 175 53 253 14 425 -73
322 -369 617 -737 736 -174 56 -451 74 -671 44z m415 -330 c263 -56 445 -193
566 -426 34 -64 34 -65 34 -204 0 -140 0 -140 -34 -205 -96 -185 -266 -322
-476 -386 -81 -24 -106 -27 -245 -28 -253 -1 -400 44 -569 176 -64 50 -154
163 -170 213 -5 17 -19 57 -31 90 -44 120 -12 331 66 449 16 22 63 75 105 116
111 109 242 172 444 214 50 10 246 4 310 -9z"/>
<path d="M6296 3264 c-175 -34 -318 -107 -420 -211 -50 -51 -109 -142 -120
-183 -6 -22 -6 -23 5 -6 71 114 236 251 357 297 131 49 202 62 342 62 251 0
424 -68 598 -238 39 -39 72 -68 72 -65 0 16 -63 101 -109 147 -163 165 -469
248 -725 197z"/>
<path d="M0 3463 l0 -148 140 3 c93 2 140 0 140 -7 0 -7 -49 -11 -140 -11
-120 0 -139 -2 -134 -15 5 -12 27 -15 113 -15 58 0 116 -3 129 -6 l22 -6 0
-614 0 -614 -135 0 -135 0 0 -165 0 -165 750 0 750 0 0 165 0 165 -425 0 -425
0 0 220 0 220 245 0 c234 0 245 1 255 20 11 20 8 20 -222 20 -143 0 -239 4
-248 11 -10 7 62 9 235 7 l250 -2 3 167 2 167 -260 0 -260 0 0 204 0 205 368
-4 c400 -4 482 0 482 21 0 12 -72 14 -427 15 -248 0 -420 4 -408 9 11 5 206 9
433 9 l413 1 -3 143 -3 142 -752 3 -753 2 0 -147z"/>
<path d="M7377 3545 c10 -27 93 -60 93 -37 0 16 -17 31 -43 41 -40 15 -57 14
-50 -4z"/>
<path d="M8364 3329 c-54 -21 -87 -50 -99 -87 -6 -22 -4 -21 44 12 60 40 113
51 212 43 104 -9 176 -46 282 -146 l49 -46 -17 40 c-31 77 -133 160 -234 189
-74 22 -174 20 -237 -5z"/>
<path d="M7840 2927 c0 -15 82 -151 112 -186 70 -80 207 -178 358 -255 41 -21
82 -44 90 -50 8 -7 27 -18 41 -25 49 -24 123 -86 157 -131 l35 -45 -7 35 c-18
88 -87 149 -290 257 -245 131 -383 238 -466 363 -17 25 -30 41 -30 37z"/>
<path d="M4980 2557 c0 -30 10 -40 27 -26 20 18 16 49 -7 49 -14 0 -20 -7 -20
-23z"/>
<path d="M4906 2536 c-3 -14 -2 -35 4 -48 12 -30 59 -86 61 -73 1 6 3 21 5 35
3 29 -35 110 -52 110 -7 0 -15 -11 -18 -24z"/>
<path d="M5029 2523 c-28 -74 -34 -114 -19 -123 13 -8 12 -10 -3 -10 -16 0
-16 -2 -3 -22 8 -13 17 -39 21 -58 8 -39 31 -80 45 -80 13 0 77 111 91 158 8
29 8 45 1 58 -7 12 -12 14 -12 5 0 -15 -60 -94 -66 -88 -2 2 3 23 11 47 23 65
19 84 -20 114 l-35 27 -11 -28z"/>
<path d="M4861 2445 c-15 -65 -9 -79 52 -129 37 -30 97 -62 97 -52 0 13 -62
125 -79 142 -11 12 -28 38 -39 58 l-19 35 -12 -54z"/>
<path d="M5205 2368 c-4 -9 -4 -22 0 -27 3 -6 0 -8 -8 -5 -10 3 -29 -16 -56
-58 -37 -54 -41 -67 -36 -97 9 -48 43 -111 59 -111 23 0 75 67 82 106 7 36
-11 165 -26 194 -8 13 -10 13 -15 -2z"/>
<path d="M4825 2320 c-11 -34 4 -109 30 -150 26 -42 65 -67 149 -99 32 -12 71
-28 86 -36 l29 -15 -15 53 c-34 113 -48 130 -144 177 -36 18 -79 46 -97 62
-31 30 -31 30 -38 8z"/>
<path d="M3370 2261 c0 -6 10 -17 23 -26 39 -27 178 -169 208 -212 16 -23 25
-44 20 -48 -14 -8 -129 32 -166 58 -16 11 -49 38 -72 59 -61 55 -82 49 -45
-14 19 -34 99 -74 260 -133 62 -23 126 -55 160 -80 57 -42 112 -98 112 -116 0
-14 -88 -11 -149 7 -116 32 -307 97 -329 112 -12 8 -26 12 -29 8 -13 -13 12
-38 52 -51 142 -46 284 -87 375 -109 58 -13 117 -29 132 -35 28 -10 108 -86
108 -102 0 -12 -86 -12 -126 0 -43 12 -418 18 -422 7 -1 -6 62 -11 155 -12
237 -2 412 -37 506 -100 23 -16 79 -62 125 -103 45 -40 82 -71 82 -67 0 7
-450 466 -531 541 -30 27 -130 127 -223 223 -154 158 -226 219 -226 193z"/>
<path d="M5275 2084 c-16 -8 -36 -24 -45 -36 -8 -11 -25 -30 -37 -41 -13 -12
-23 -32 -23 -48 0 -90 116 -1 134 104 4 20 6 37 4 37 -2 0 -16 -7 -33 -16z"/>
<path d="M5021 2025 c9 -8 79 -35 79 -30 0 2 -16 12 -36 20 -37 15 -51 19 -43
10z"/>
<path d="M4742 1881 c-22 -13 7 -83 56 -133 44 -46 82 -62 82 -35 -1 39 -22
93 -47 119 -35 37 -75 59 -91 49z"/>
<path d="M5134 1853 c-11 -18 -20 -60 -26 -123 -13 -159 -12 -197 7 -226 35
-54 46 -121 39 -249 -7 -112 -9 -124 -43 -185 -51 -95 -95 -150 -235 -295 -69
-71 -131 -135 -138 -142 -7 -7 -53 -49 -103 -93 -146 -132 -241 -230 -275
-287 -18 -30 -31 -55 -29 -58 5 -5 74 62 249 242 74 76 146 150 160 165 109
111 204 200 230 213 44 23 215 47 345 48 61 1 220 -4 355 -10 265 -13 299 -20
410 -82 39 -22 68 -31 102 -31 69 0 67 16 -4 30 -34 6 -80 20 -103 29 -22 10
-53 23 -69 30 -16 6 -27 13 -25 15 2 2 72 20 154 41 156 39 185 49 185 65 0
16 -21 12 -121 -20 -52 -17 -131 -37 -176 -46 -76 -14 -88 -14 -141 1 -53 15
-65 15 -141 1 -84 -16 -207 -21 -248 -10 -37 10 -26 24 17 24 45 0 47 5 21 39
l-18 24 -74 -26 c-72 -26 -226 -58 -341 -72 -49 -6 -59 -5 -64 10 -5 11 4 27
27 50 33 32 48 59 135 240 55 113 145 244 194 284 23 19 92 56 154 83 116 51
196 111 164 123 -20 8 -127 -43 -213 -100 -50 -34 -73 -43 -91 -39 -40 10 -28
37 54 120 110 111 115 142 17 111 -88 -27 -115 -62 -115 -148 0 -61 -31 -154
-75 -224 -17 -27 -39 -62 -48 -77 -10 -16 -24 -28 -32 -28 -16 0 -21 17 -29
101 -3 31 -18 92 -32 135 -23 68 -26 89 -21 164 3 47 14 111 26 144 24 68 24
66 12 66 -5 0 -17 -12 -27 -27z"/>
<path d="M7540 1821 c-60 -5 -85 -12 -123 -36 -51 -32 -57 -55 -17 -66 78 -22
166 2 209 57 21 26 28 56 14 52 -5 -1 -42 -4 -83 -7z"/>
<path d="M7231 1695 c-89 -43 -86 -53 26 -84 83 -22 117 -17 172 28 l33 27
-73 30 c-41 16 -76 30 -79 32 -3 1 -39 -14 -79 -33z"/>
<path d="M20 1676 c0 -3 7 -12 16 -20 14 -14 93 -16 723 -16 705 0 731 1 731
32 0 4 -331 8 -735 8 -404 0 -735 -2 -735 -4z"/>
<path d="M4928 1639 c-62 -22 -118 -74 -118 -111 0 -19 5 -16 34 18 33 38 55
50 149 74 27 7 47 18 47 26 0 19 -43 16 -112 -7z"/>
<path d="M7034 1619 c-66 -36 -136 -88 -129 -99 8 -14 122 -35 185 -35 53 0
75 6 119 30 30 17 57 36 59 43 2 7 -13 19 -35 28 -58 23 -103 48 -103 56 0 16
-39 7 -96 -23z"/>
<path d="M6820 1609 c-79 -20 -98 -34 -144 -107 -32 -51 -24 -53 76 -17 75 27
136 65 182 114 l30 31 -35 -1 c-19 0 -68 -9 -109 -20z"/>
<path d="M3046 1601 c-9 -15 58 -130 97 -165 61 -56 145 -120 199 -150 25 -15
52 -33 58 -41 22 -27 30 -16 30 39 0 35 -8 73 -25 111 -24 53 -29 58 -88 83
-34 14 -108 49 -165 78 -56 28 -104 49 -106 45z"/>
<path d="M6588 1576 c-40 -14 -95 -56 -117 -90 -8 -12 -27 -35 -43 -52 l-29
-31 23 -6 c63 -17 190 62 251 155 9 15 17 30 17 33 0 10 -65 4 -102 -9z"/>
<path d="M2975 1535 c-17 -20 -79 -74 -140 -119 -159 -120 -166 -128 -158
-168 7 -41 21 -68 33 -68 6 0 31 16 56 35 46 35 84 59 84 52 0 -2 -29 -24 -64
-50 -36 -26 -68 -57 -71 -68 -8 -26 23 -119 40 -119 7 0 44 25 82 55 181 146
199 178 189 330 -3 55 -10 113 -14 128 l-7 28 -30 -36z"/>
<path d="M6401 1534 c-59 -16 -137 -70 -196 -135 -48 -53 -46 -63 13 -54 86
13 155 64 251 188 17 21 8 22 -68 1z"/>
<path d="M6152 1480 c-80 -19 -121 -42 -156 -87 -20 -25 -36 -51 -36 -56 0
-16 95 -1 141 22 45 23 112 82 130 114 8 14 6 17 -18 16 -15 -1 -43 -5 -61 -9z"/>
<path d="M6776 1472 c-27 -10 -51 -23 -53 -29 -6 -17 105 -55 162 -56 36 -1
63 6 94 23 52 29 64 50 27 50 -13 0 -35 4 -48 9 -53 20 -132 21 -182 3z"/>
<path d="M3074 1395 c4 -39 17 -93 30 -121 23 -49 148 -194 168 -194 6 0 26
-14 45 -31 19 -16 42 -29 50 -27 17 3 53 89 55 131 1 37 -35 74 -147 149 -49
34 -117 84 -149 112 l-59 51 7 -70z"/>
<path d="M4796 1385 c-3 -39 -11 -95 -16 -125 -29 -160 -51 -278 -60 -310 -21
-78 -101 -217 -165 -285 -11 -12 -38 -41 -60 -65 -98 -105 -164 -124 -155 -45
1 11 5 25 10 30 18 23 49 124 37 120 -7 -2 -24 -6 -39 -9 l-28 -6 0 97 c0 54
5 105 10 113 5 8 44 50 87 92 42 43 74 81 70 85 -13 13 -97 -35 -97 -56 0 -11
-19 -35 -41 -55 -50 -42 -65 -38 -103 27 -14 23 -40 56 -58 72 l-32 30 28 -38
c34 -47 92 -192 107 -270 13 -64 7 -206 -12 -272 -6 -22 -33 -88 -60 -146 -59
-128 -72 -209 -42 -272 l18 -39 1 64 c1 51 8 78 37 138 39 81 96 142 253 270
170 138 276 336 304 570 5 41 16 118 24 170 19 118 20 141 2 165 -13 17 -15
13 -20 -50z"/>
<path d="M5920 1440 c-58 -11 -139 -65 -167 -114 -19 -32 -16 -35 25 -25 82
18 143 55 182 108 23 34 14 41 -40 31z"/>
<path d="M6473 1377 l-132 -41 84 -38 c70 -31 96 -38 147 -38 82 1 136 14 215
52 53 25 62 33 48 41 -40 22 -178 67 -203 66 -15 -1 -87 -20 -159 -42z"/>
<path d="M3891 1344 c11 -13 9 -14 -14 -9 -47 12 -33 -19 27 -59 38 -26 90
-34 100 -17 20 31 -52 101 -103 101 -20 0 -22 -2 -10 -16z"/>
<path d="M6076 1301 l-39 -6 74 -62 c58 -49 84 -64 119 -69 59 -9 188 10 248
36 l47 22 -57 29 c-32 16 -83 36 -115 44 -57 15 -200 18 -277 6z"/>
<path d="M4379 1260 c12 -19 32 -48 46 -65 22 -26 25 -28 25 -10 0 12 -21 41
-46 65 -45 45 -45 45 -25 10z"/>
<path d="M5845 1285 c-5 -2 -27 -6 -47 -10 -21 -3 -38 -9 -38 -13 0 -4 32 -22
71 -40 61 -29 85 -34 175 -39 93 -5 104 -4 98 10 -8 21 -65 64 -109 83 -30 12
-123 18 -150 9z"/>
<path d="M5385 1252 c-38 -24 -52 -40 -60 -75 -9 -33 7 -35 81 -10 93 31 115
57 72 87 -29 21 -56 20 -93 -2z"/>
<path d="M3019 1213 c-12 -17 -102 -97 -173 -153 -10 -8 -30 -25 -45 -37 l-26
-21 25 -44 c13 -23 33 -51 45 -60 19 -15 22 -15 46 0 44 28 117 100 145 142
24 36 26 45 20 103 -9 79 -18 96 -37 70z"/>
<path d="M3080 1214 c1 -49 30 -136 57 -171 48 -60 143 -153 156 -153 14 1 67
68 67 85 0 12 -53 58 -92 80 -10 6 -56 48 -103 94 -60 60 -85 79 -85 65z"/>
<path d="M4205 1219 c-15 -23 68 -83 107 -77 20 3 20 3 -1 30 -20 24 -73 58
-92 58 -4 0 -11 -5 -14 -11z"/>
<path d="M4030 1206 c0 -8 16 -23 35 -35 l35 -20 -15 28 c-8 16 -22 31 -30 35
-23 8 -25 8 -25 -8z"/>
<path d="M4550 1082 c0 -10 4 -22 10 -28 5 -5 16 -36 24 -69 l14 -60 1 58 c1
34 -5 70 -14 87 -17 34 -35 39 -35 12z"/>
<path d="M5929 1053 c-15 -4 -44 -45 -66 -95 -15 -35 -6 -36 64 -4 103 48 105
127 2 99z"/>
<path d="M3092 993 c-11 -27 -7 -134 7 -175 15 -47 36 -49 100 -11 59 34 64
42 44 73 -20 30 -124 130 -136 130 -4 0 -11 -8 -15 -17z"/>
<path d="M3918 988 c13 -51 179 -178 233 -178 20 0 2 71 -29 115 -33 45 -112
84 -174 85 -33 0 -36 -2 -30 -22z"/>
<path d="M2963 915 c-40 -32 -73 -61 -73 -66 0 -18 127 -99 156 -99 6 0 3 120
-4 174 l-7 49 -72 -58z"/>
<path d="M4473 945 c-30 -21 -70 -147 -45 -144 20 2 68 38 79 60 17 32 17 99
0 99 -7 0 -22 -7 -34 -15z"/>
<path d="M5144 764 c-10 -38 16 -109 39 -108 9 1 17 -5 17 -13 0 -22 36 -69
72 -94 l31 -23 24 28 c22 26 22 29 7 54 -9 15 -34 41 -57 59 -36 28 -42 30
-53 15 -9 -13 -14 -6 -31 43 -22 66 -39 80 -49 39z"/>
<path d="M5920 784 c0 -3 9 -19 20 -35 12 -15 27 -45 34 -66 10 -30 19 -39 39
-41 35 -4 34 12 -3 49 -16 17 -37 43 -47 59 -15 26 -43 48 -43 34z"/>
<path d="M3947 714 c-10 -54 13 -101 84 -175 38 -38 69 -78 70 -87 0 -14 2
-13 9 3 15 34 10 108 -9 150 -17 37 -79 98 -127 123 -19 10 -22 9 -27 -14z"/>
<path d="M5533 669 c-45 -13 -41 -27 10 -34 85 -13 137 8 82 33 -30 14 -47 14
-92 1z"/>
<path d="M5358 531 c-21 -14 -37 -31 -38 -36 -1 -25 113 -113 167 -129 l22 -7
-26 68 c-49 126 -69 143 -125 104z"/>
<path d="M5930 519 c0 -21 45 -59 71 -59 32 0 34 22 4 46 -38 30 -75 37 -75
13z"/>
<path d="M5470 521 c0 -4 9 -19 19 -32 10 -14 33 -54 50 -91 29 -60 96 -138
120 -138 14 0 23 72 15 116 -9 50 -21 74 -52 99 -49 39 -152 70 -152 46z"/>
<path d="M5267 254 c-4 -4 -7 -27 -7 -51 0 -36 3 -44 16 -41 9 2 26 16 38 31
16 21 18 32 10 45 -12 18 -45 28 -57 16z"/>
</g>
</svg>
